<?xml version="1.0" encoding="UTF-8" standalone="no"?>
<svg
   version="1.1"
   width="24"
   height="24"
   viewBox="0 0 24 24"
   id="svg5"
   sodipodi:docname="fair.svg"
   inkscape:version="1.2.2 (732a01da63, 2022-12-09)"
   xmlns:inkscape="http://www.inkscape.org/namespaces/inkscape"
   xmlns:sodipodi="http://sodipodi.sourceforge.net/DTD/sodipodi-0.dtd"
   xmlns="http://www.w3.org/2000/svg"
   xmlns:svg="http://www.w3.org/2000/svg">
  <defs
     id="defs9" />
  <sodipodi:namedview
     id="namedview7"
     pagecolor="#ffffff"
     bordercolor="#000000"
     borderopacity="0.25"
     inkscape:showpageshadow="2"
     inkscape:pageopacity="0.0"
     inkscape:pagecheckerboard="0"
     inkscape:deskcolor="#d1d1d1"
     showgrid="false"
     inkscape:zoom="35.583333"
     inkscape:cx="15.920375"
     inkscape:cy="12.533958"
     inkscape:window-width="2560"
     inkscape:window-height="1369"
     inkscape:window-x="-8"
     inkscape:window-y="-8"
     inkscape:window-maximized="1"
     inkscape:current-layer="svg5" />
  <style
     id="style2">path{fill:#000}@media (prefers-color-scheme:dark){path{fill:#fff}}</style>
  <path
     id="path60"
     d="M 20.989291,12.637535 A 0.75638847,0.75638847 0 0 0 20.474634,12.504972 C 20.684618,11.496826 20.829435,10.492021 20.907413,9.517851 21.120182,6.8498825 20.426734,4.5679064 18.90226,2.9181107 17.275857,1.1591454 14.759947,0.14988479 12.000075,0.14988479 c -0.700689,0 -1.322287,0.0690664 -1.67486,0.13479087 A 4.9215379,4.9215379 0 0 1 9.9024619,0.04071531 L 9.8740555,0.02122077 A 0.10638453,0.10638453 0 0 0 9.7292389,0.0501841 L 9.5432052,0.32422175 a 0.10527056,0.10527056 0 0 0 0.02952,0.14760158 l 0.02952,0.0189376 C 10.079027,0.80323063 10.599253,1.0382792 11.02869,1.135195 c 0.487364,0.1097264 0.73021,0.3464459 0.831582,0.4778949 l 0.01838,0.022837 a 0.10582755,0.10582755 0 0 0 0.130892,0.028963 l 0.295759,-0.1548426 a 0.10638453,0.10638453 0 0 0 0.03676,-0.1548424 l -0.02339,-0.032862 C 12.222873,1.188666 11.95496,0.87953814 11.430279,0.69183352 c 0.190489,-0.0105828 0.43612,-0.0183805 0.56924,-0.0183805 2.616726,0 4.992833,0.94743498 6.517864,2.60001578 1.442596,1.5634628 2.071434,3.6504932 1.867577,6.2031651 a 24.15653,24.15653 0 0 1 -0.525795,3.3903801 l -0.02841,0.150386 a 0.14147472,0.14147472 0 0 0 0.137575,0.167096 h 0.201629 a 0.14203171,0.14203171 0 0 0 0.08578,-0.03008 l 0.03175,-0.02507 c 0.136462,-0.104158 0.304114,-0.13145 0.398803,-0.06405 0.191046,0.134792 0.194945,0.586508 0.01059,1.149622 l -0.186591,0.573697 -0.0056,0.01504 c -0.106941,0.331407 -0.217224,0.673954 -0.354801,1.082226 -0.216668,0.641649 -0.608229,1.057718 -1.057161,1.127342 l 0.03509,-0.08076 c 0.02618,-0.06127 0.05292,-0.122537 0.07909,-0.187147 a 0.14203171,0.14203171 0 0 0 -0.07965,-0.182135 l -0.22725,-0.08912 a 0.14203171,0.14203171 0 0 0 -0.180464,0.07853 c -0.988652,2.480821 -2.225164,4.35731 -3.891113,5.905734 -0.905104,0.841051 -1.7857,1.013717 -2.828937,1.013717 -1.043237,0 -1.923276,-0.172666 -2.8283803,-1.014274 C 7.5040513,20.909345 6.268097,19.032297 5.2805589,16.552591 a 0.14091774,0.14091774 0 0 0 -0.1815657,-0.07798 l -0.2266937,0.08912 a 0.13924677,0.13924677 0 0 0 -0.079092,0.182135 c 0.025622,0.06461 0.052357,0.126436 0.079649,0.188262 0.01114,0.02562 0.02228,0.05013 0.032306,0.07631 a 0.25064419,0.25064419 0 0 1 -0.021723,-0.0034 c -0.4433617,-0.0813 -0.819885,-0.490127 -1.033211,-1.12175 A 79.131156,79.131156 0 0 1 3.5004406,14.820886 L 3.3038241,14.213769 c -0.1854766,-0.562557 -0.1810208,-1.013716 0.010026,-1.148507 0.097473,-0.06851 0.2617839,-0.04011 0.4088285,0.07185 l 0.037318,0.02339 a 0.13980376,0.13980376 0 0 0 0.083548,0.02116 l 0.1988444,-0.01337 a 0.12587908,0.12587908 0 0 0 0.063496,-0.02172 0.14036075,0.14036075 0 0 0 0.074079,-0.0011 c 0.1960594,-0.04957 0.388777,-0.220567 0.5291377,-0.46954 0.2283648,-0.404929 0.392119,-0.997007 0.5814946,-1.681544 C 5.671588,9.6130953 6.1466979,7.8942336 7.3826523,7.1150084 8.7673222,6.2416526 9.9598316,6.395938 11.340603,6.5741739 12.666232,6.744612 14.166755,6.9373295 16.115096,6.2544633 l 0.04456,0.028964 c 0.143146,1.0566042 0.804846,2.4446159 2.236861,3.191536 A 0.20963621,0.20963621 0 1 0 18.589788,9.1028954 C 17.256363,8.4072186 16.669298,7.1150084 16.564584,6.137496 a 0.21165509,0.21165509 0 0 0 -0.0958,-0.1548424 L 16.253228,5.8461918 A 0.20608522,0.20608522 0 0 0 16.069423,5.8255833 C 14.165641,6.5162472 12.69241,6.3257577 11.38739,6.1569906 9.9882379,5.9776407 8.6687355,5.8088737 7.1587434,6.7602076 5.7852134,7.6257656 5.2867099,9.431518 4.8862362,10.882469 4.7041014,11.540827 4.547588,12.109511 4.3442877,12.469882 4.2590687,12.620269 4.1693938,12.694905 4.1103532,12.726096 A 23.842946,23.842946 0 0 1 3.6146346,9.4766335 C 3.2007933,4.285514 6.31825,2.1917995 8.214234,1.4058907 A 0.3536868,0.3536868 0 0 1 8.239299,1.3953077 C 8.4732336,1.4977933 8.6921295,1.5724296 8.889303,1.6169886 9.3772236,1.726715 9.62007,1.9634345 9.7214417,2.0948835 l 0.017823,0.022837 a 0.10582755,0.10582755 0 0 0 0.131449,0.028963 L 10.165917,1.9923981 a 0.10638453,0.10638453 0 0 0 0.05403,-0.069066 0.10248563,0.10248563 0 0 0 -0.01671,-0.085776 l -0.02395,-0.03342 C 10.063431,1.6426102 9.7164282,1.2482634 9.0084976,1.087851 8.6420001,1.0059739 8.1886126,0.7993317 7.7636314,0.52250915 L 7.7357821,0.50357155 A 0.10582755,0.10582755 0 0 0 7.5904085,0.53197785 L 7.4043748,0.80601553 a 0.10527056,0.10527056 0 0 0 0.02952,0.14815855 l 0.02952,0.018381 C 7.5257984,1.013215 7.5892947,1.0510903 7.6516773,1.0878514 4.4451026,2.5811338 2.7836101,5.6495757 3.092738,9.5184079 a 24.396034,24.396034 0 0 0 0.4327789,2.9871211 0.75805943,0.75805943 0 0 0 -0.5140991,0.132006 c -0.2356055,0.165982 -0.5753677,0.6138 -0.2060852,1.740028 l 0.1860337,0.571468 c 0.1164103,0.360928 0.2239088,0.69345 0.3620416,1.103949 0.3720674,1.10172 1.1167591,1.494953 1.6898989,1.494953 0.027849,0 0.055699,-0.0028 0.083548,-0.0056 l 0.00446,-5.57e-4 c 0.9652586,2.177819 2.1360455,3.862705 3.6827986,5.299732 1.0911377,1.014273 2.1761486,1.154078 3.1859666,1.154078 1.00926,0 2.094271,-0.139247 3.185966,-1.153521 1.546196,-1.437026 2.716983,-3.121913 3.682242,-5.300289 h 0.0039 c 0.02785,0.0034 0.05625,0.0056 0.08522,0.0056 0.572583,0 1.317275,-0.392676 1.688786,-1.494396 0.140917,-0.416626 0.252314,-0.75973 0.363155,-1.103949 l 0.184919,-0.570911 c 0.36984,-1.126785 0.03008,-1.574046 -0.20497,-1.740585 m -9.629164,7.31714 a 0.20998413,0.20998413 0 0 0 0,0.419968 h 1.27992 a 0.20970564,0.20970564 0 0 0 0,-0.419411 H 11.360097 Z M 11.208597,16.14711 c 0.285734,0.08244 0.549189,0.122538 0.806517,0.122538 0.256214,0 0.520226,-0.04011 0.805403,-0.122538 a 0.21054112,0.21054112 0 0 0 0.04233,-0.385992 0.2071992,0.2071992 0 0 0 -0.157628,-0.01671 c -0.496832,0.143146 -0.883938,0.143146 -1.380771,0 a 0.20385727,0.20385727 0 0 0 -0.157627,0.01671 0.2071992,0.2071992 0 0 0 -0.101372,0.126436 0.20664221,0.20664221 0 0 0 0.01782,0.159856 0.20775618,0.20775618 0 0 0 0.125322,0.100258 m 2.987122,3.536311 a 0.20887016,0.20887016 0 0 0 0.208314,-0.232818 0.20831317,0.20831317 0 0 0 -0.07686,-0.140361 c -0.636637,-0.512428 -1.39024,-0.772541 -2.241874,-0.772541 -0.85219,0 -1.605794,0.259556 -2.2424298,0.772541 a 0.20831317,0.20831317 0 0 0 -0.031749,0.295204 c 0.072408,0.08912 0.2049708,0.104156 0.2952028,0.03119 0.559215,-0.451159 1.225372,-0.679524 1.978976,-0.679524 0.753603,0 1.419203,0.228365 1.978975,0.679524 0.03788,0.03064 0.08355,0.04679 0.131449,0.04679 m 2.268052,-8.091349 a 0.20887016,0.20887016 0 0 0 0.180464,-0.235048 0.21276907,0.21276907 0 0 0 -0.235606,-0.179907 c -0.884496,0.116967 -1.825246,-0.19049 -2.455199,-0.804847 a 0.21054112,0.21054112 0 0 0 -0.356472,0.153172 0.21165509,0.21165509 0 0 0 0.0635,0.147602 c 0.608787,0.593191 1.496068,0.947991 2.37388,0.947991 0.144259,0 0.288518,-0.01003 0.429437,-0.02896 m -6.129086,-1.21591 a 0.20775618,0.20775618 0 0 0 -0.148158,-0.0635 h -0.0022 a 0.20831317,0.20831317 0 0 0 -0.145927,0.0596 c -0.6293958,0.614357 -1.568476,0.923485 -2.4551995,0.80429 A 0.20831317,0.20831317 0 0 0 7.347597,11.357581 0.20998413,0.20998413 0 0 0 7.5280608,11.59263 c 0.1414747,0.01894 0.2862914,0.02896 0.4294371,0.02896 0.8783686,0 1.765649,-0.3548 2.3744361,-0.948548 a 0.20998413,0.20998413 0 0 0 0.0028,-0.296317 m 5.578782,2.333218 c 0,-0.286849 -0.383763,-0.520783 -0.855532,-0.520783 -0.47121,0 -0.854417,0.233934 -0.854417,0.520783 0,0.291861 0.374852,0.520226 0.854417,0.520226 0.471769,0 0.855532,-0.233934 0.855532,-0.520226 m -6.9841136,0.520223 c 0.4723251,0 0.8560892,-0.233934 0.8560892,-0.520226 0,-0.286849 -0.3843211,-0.520783 -0.8560892,-0.520783 -0.4712111,0 -0.8544182,0.233934 -0.8544182,0.520783 0,0.291861 0.3754093,0.520226 0.8544182,0.520226"
     style="stroke-width:0.556987" />
</svg>
