<?xml version="1.0" encoding="UTF-8" standalone="no"?>
<svg
   version="1.1"
   width="24"
   height="24"
   viewBox="0 0 24 24"
   id="svg328"
   sodipodi:docname="good.svg"
   inkscape:version="1.2.2 (732a01da63, 2022-12-09)"
   xmlns:inkscape="http://www.inkscape.org/namespaces/inkscape"
   xmlns:sodipodi="http://sodipodi.sourceforge.net/DTD/sodipodi-0.dtd"
   xmlns="http://www.w3.org/2000/svg"
   xmlns:svg="http://www.w3.org/2000/svg">
  <defs
     id="defs332" />
  <sodipodi:namedview
     id="namedview330"
     pagecolor="#ffffff"
     bordercolor="#000000"
     borderopacity="0.25"
     inkscape:showpageshadow="2"
     inkscape:pageopacity="0.0"
     inkscape:pagecheckerboard="0"
     inkscape:deskcolor="#d1d1d1"
     showgrid="false"
     inkscape:zoom="25.161216"
     inkscape:cx="9.3198992"
     inkscape:cy="13.473117"
     inkscape:window-width="2560"
     inkscape:window-height="1369"
     inkscape:window-x="-8"
     inkscape:window-y="-8"
     inkscape:window-maximized="1"
     inkscape:current-layer="svg328" />
  <style
     id="style325">path{fill:#000}@media (prefers-color-scheme:dark){path{fill:#fff}}</style>
  <path
     id="path60"
     d="m 12.78429,20.362514 v -0.06229 a 0.20300575,0.20300575 0 0 0 0,-0.294776 v -0.0623 h -1.565091 v 0.05951 a 0.20411811,0.20411811 0 0 0 -0.0673,0.150169 c 0,0.05617 0.02392,0.11068 0.06674,0.150169 v 0.05951 h 1.566204 z m 1.452187,-1.389338 a 0.20967992,0.20967992 0 0 0 -0.209124,-0.20968 H 9.9727996 a 0.2099581,0.2099581 0 0 0 0,0.419916 h 4.0545534 c 0.115685,0 0.209124,-0.09455 0.209124,-0.210236 m 2.249192,-7.888859 a 0.20967992,0.20967992 0 0 0 -0.209124,-0.209679 h -2.444968 a 0.20967992,0.20967992 0 0 0 0,0.418803 h 2.444968 a 0.20967992,0.20967992 0 0 0 0.209124,-0.209124 m -1.432164,2.144074 c 0.471641,0 0.854849,-0.233595 0.854849,-0.519472 0,-0.286433 -0.383764,-0.520028 -0.854849,-0.520028 -0.470528,0 -0.853736,0.233595 -0.853736,0.520028 0,0.291439 0.375421,0.519472 0.853736,0.519472 M 10.366019,11.084317 A 0.20967992,0.20967992 0 0 0 10.156895,10.874638 H 7.7119273 a 0.20967992,0.20967992 0 0 0 0,0.418803 h 2.4449677 a 0.20967992,0.20967992 0 0 0 0.209124,-0.209124 m -1.4321639,2.144074 c 0.4716407,0 0.8548488,-0.233595 0.8548488,-0.519472 0,-0.286433 -0.3837642,-0.520028 -0.8548488,-0.520028 -0.4705285,0 -0.8531804,0.233595 -0.8531804,0.520028 0,0.291439 0.3748654,0.519472 0.8531804,0.519472 M 20.976267,12.636616 a 0.75529263,0.75529263 0 0 0 -0.51391,-0.132371 c 0.20968,-1.006686 0.354286,-2.010034 0.432152,-2.9827937 C 21.10697,6.8573482 20.414526,4.5786781 18.892261,2.9312724 17.268215,1.1748556 14.755949,0.16705714 12.000076,0.16705714 c -0.699674,0 -1.320371,0.0689664 -1.672434,0.1345956 A 4.9144078,4.9144078 0 0 1 9.9055018,0.05804584 L 9.8771366,0.03857953 A 0.10623041,0.10623041 0 0 0 9.7325297,0.0675009 L 9.5467656,0.34114153 a 0.10511805,0.10511805 0 0 0 0.029477,0.14738774 l 0.029477,0.0189101 c 0.4760914,0.31201711 0.9955634,0.54672503 1.4243784,0.64350043 0.486658,0.1095675 0.729152,0.3459441 0.830377,0.4772026 l 0.01835,0.022804 a 0.10567423,0.10567423 0 0 0 0.130702,0.028922 L 12.304863,1.525249 a 0.10623041,0.10623041 0 0 0 0.03671,-0.154618 l -0.02336,-0.032815 c -0.09567,-0.1334829 -0.363187,-0.44216288 -0.887109,-0.62959558 0.190214,-0.0105674 0.435489,-0.0183539 0.568416,-0.0183539 2.612934,0 4.985599,0.94606238 6.50842,2.59624888 1.440507,1.5611977 2.068434,3.6452047 1.864872,6.1941782 a 24.121533,24.121533 0 0 1 -0.525034,3.3854694 l -0.02837,0.150168 a 0.14126976,0.14126976 0 0 0 0.137376,0.166854 h 0.201338 a 0.14182593,0.14182593 0 0 0 0.08565,-0.03003 l 0.0317,-0.02503 c 0.136264,-0.104006 0.303675,-0.131259 0.398225,-0.06396 0.19077,0.134596 0.194663,0.585658 0.01057,1.147956 l -0.18632,0.572866 -0.0056,0.01502 c -0.106787,0.330927 -0.21691,0.672978 -0.354287,1.080658 -0.216354,0.640719 -0.607348,1.056186 -1.05563,1.125708 l 0.03504,-0.08065 c 0.02614,-0.06118 0.05284,-0.122359 0.07898,-0.186876 a 0.14182593,0.14182593 0 0 0 -0.07953,-0.181872 l -0.226921,-0.08899 a 0.14182593,0.14182593 0 0 0 -0.180203,0.07842 c -0.98722,2.477227 -2.221939,4.350997 -3.885474,5.897179 -0.903792,0.839831 -1.783113,1.012247 -2.824839,1.012247 -1.041725,0 -1.92049,-0.172416 -2.8248389,-1.012804 C 7.5105711,20.896441 6.2764073,19.022114 5.2897437,16.546 A 0.1401574,0.1401574 0 0 0 5.1089852,16.46814 L 4.8820637,16.55713 A 0.1401574,0.1401574 0 0 0 4.8036427,16.739 c 0.025028,0.0634 0.051169,0.123473 0.077865,0.184652 l 0.033927,0.07953 a 0.25028107,0.25028107 0 0 1 -0.021691,-0.0034 C 4.4510243,16.918582 4.0750465,16.510343 3.8620295,15.879635 A 79.016511,79.016511 0 0 1 3.5127484,14.816775 L 3.3164348,14.210581 c -0.1852079,-0.561741 -0.1807585,-1.012247 0.010011,-1.146843 0.097332,-0.06841 0.2614046,-0.04005 0.4082362,0.07175 l 0.037264,0.02336 a 0.13904504,0.13904504 0 0 0 0.083427,0.02113 l 0.1985563,-0.01335 a 0.12458435,0.12458435 0 0 0 0.063405,-0.02169 0.14516302,0.14516302 0 0 0 0.073972,-0.0011 C 4.3870817,13.094338 4.5795201,12.92359 4.7196774,12.674978 4.9477114,12.270635 5.1112283,11.679415 5.3003295,10.99587 5.6807566,9.6165012 6.1551782,7.9001296 7.389342,7.1220334 8.7720058,6.2499429 9.9627876,6.4040048 11.341558,6.5819825 c 1.323709,0.1701911 2.822059,0.3626294 4.767576,-0.3192474 l 0.04449,0.028922 c 0.142938,1.055073 0.80368,2.441074 2.233619,3.1869114 A 0.2093334,0.2093334 0 1 0 18.580242,9.1070402 C 17.248749,8.4124279 16.662535,7.1220899 16.557973,6.1459937 A 0.21134846,0.21134846 0 0 0 16.46231,5.9913756 L 16.247068,5.8551115 A 0.20578666,0.20578666 0 0 0 16.063529,5.8345329 C 14.162504,6.5241962 12.691408,6.3339827 11.388278,6.16546 9.9911535,5.9863701 8.6730066,5.8178474 7.1657583,6.7678031 5.7942181,7.6321073 5.2964369,9.435243 4.8965433,10.884092 4.7146724,11.541497 4.5583858,12.109357 4.3553801,12.469206 4.2702841,12.619374 4.1807395,12.693902 4.1217844,12.725048 A 23.808404,23.808404 0 0 1 3.626784,9.4802936 C 3.2135422,4.2966948 6.3264825,2.2060136 8.2197197,1.4212433 a 0.3531744,0.3531744 0 0 1 0.025028,-0.010567 c 0.2335959,0.1023368 0.4521747,0.176865 0.6490625,0.2213594 0.4872138,0.1095674 0.7297083,0.345944 0.8309331,0.4772025 l 0.017798,0.022804 a 0.10567423,0.10567423 0 0 0 0.1312582,0.028921 L 10.168575,2.0069011 a 0.10623041,0.10623041 0 0 0 0.05395,-0.068966 0.10233715,0.10233715 0 0 0 -0.01669,-0.085652 l -0.02392,-0.033371 C 10.066238,1.6576199 9.7197376,1.2638444 9.0128327,1.1036645 8.6468661,1.021906 8.1941355,0.81556322 7.76977,0.53914166 L 7.741961,0.52023156 A 0.10567423,0.10567423 0 0 0 7.596798,0.54859676 L 7.4110338,0.82223735 a 0.10511805,0.10511805 0 0 0 0.029477,0.14794394 l 0.029477,0.0183541 c 0.062292,0.040601 0.1256967,0.078421 0.1879889,0.11512931 -3.2019285,1.491119 -4.861014,4.5551154 -4.552334,8.4183423 a 24.360691,24.360691 0 0 0 0.432152,2.982794 0.75751734,0.75751734 0 0 0 -0.5133543,0.131815 c -0.2352642,0.165742 -0.574534,0.61291 -0.2057866,1.737507 l 0.1857642,0.570641 c 0.1162416,0.360404 0.2235844,0.692444 0.361517,1.102348 0.3715284,1.100125 1.1151413,1.492788 1.6874506,1.492788 0.027809,0 0.055618,-0.0028 0.083427,-0.0056 l 0.00445,-5.56e-4 c 0.9638602,2.174665 2.1329508,3.857109 3.6774631,5.292054 1.0895569,1.012804 2.1729963,1.152405 3.1813503,1.152405 1.007799,0 2.091237,-0.139044 3.18135,-1.151849 1.543957,-1.436057 2.713603,-3.117945 3.677463,-5.29261 h 0.0039 c 0.02781,0.0034 0.05617,0.0056 0.08454,0.0056 0.571753,0 1.315366,-0.392107 1.686339,-1.492232 0.140713,-0.416022 0.251949,-0.758629 0.362629,-1.102348 l 0.184651,-0.570085 c 0.369304,-1.125153 0.03003,-1.571766 -0.204674,-1.738063 m -8.961142,3.627407 c 0.255843,0 0.519473,-0.04005 0.804237,-0.12236 A 0.20967992,0.20967992 0 0 0 12.7042,15.738432 c -0.496112,0.144051 -0.882658,0.143495 -1.37877,0 a 0.20801137,0.20801137 0 0 0 -0.25918,0.142939 c -0.0317,0.111236 0.03281,0.228034 0.143494,0.259736 0.285321,0.08287 0.54895,0.12236 0.805349,0.12236"
     style="stroke-width:0.55618" />
</svg>
