<svg xmlns="http://www.w3.org/2000/svg" xmlns:xlink="http://www.w3.org/1999/xlink" version="1.1"  width="24" height="24" viewBox="0 0 24 24">
<style>path{fill:#000}@media (prefers-color-scheme:dark){path{fill:#fff}}</style>
<path
         id="path60"
         d="m 25.41,38.404 v -0.112 a 0.365,0.365 0 0 0 0,-0.53 V 37.65 h -2.814 v 0.107 a 0.367,0.367 0 0 0 -0.121,0.27 c 0,0.101 0.043,0.199 0.12,0.27 v 0.107 h 2.816 z m 2.611,-2.498 a 0.377,0.377 0 0 0 -0.376,-0.377 h -7.29 a 0.3775,0.3775 0 0 0 0,0.755 h 7.29 c 0.208,0 0.376,-0.17 0.376,-0.378 m 4.044,-14.184 a 0.377,0.377 0 0 0 -0.376,-0.377 h -4.396 a 0.377,0.377 0 0 0 0,0.753 h 4.396 a 0.377,0.377 0 0 0 0.376,-0.376 m -2.575,3.855 c 0.848,0 1.537,-0.42 1.537,-0.934 0,-0.515 -0.69,-0.935 -1.537,-0.935 -0.846,0 -1.535,0.42 -1.535,0.935 0,0.524 0.675,0.934 1.535,0.934 M 21.062,21.722 A 0.377,0.377 0 0 0 20.686,21.345 H 16.29 a 0.377,0.377 0 0 0 0,0.753 h 4.396 a 0.377,0.377 0 0 0 0.376,-0.376 m -2.575,3.855 c 0.848,0 1.537,-0.42 1.537,-0.934 0,-0.515 -0.69,-0.935 -1.537,-0.935 -0.846,0 -1.534,0.42 -1.534,0.935 0,0.524 0.674,0.934 1.534,0.934 m 21.652,-1.064 a 1.358,1.358 0 0 0 -0.924,-0.238 c 0.377,-1.81 0.637,-3.614 0.777,-5.363 0.382,-4.79 -0.863,-8.887 -3.6,-11.849 C 33.472,3.905 28.955,2.093 24,2.093 c -1.258,0 -2.374,0.124 -3.007,0.242 A 8.836,8.836 0 0 1 20.234,1.897 L 20.183,1.862 a 0.191,0.191 0 0 0 -0.26,0.052 l -0.334,0.492 a 0.189,0.189 0 0 0 0.053,0.265 l 0.053,0.034 c 0.856,0.561 1.79,0.983 2.561,1.157 0.875,0.197 1.311,0.622 1.493,0.858 l 0.033,0.041 a 0.19,0.19 0 0 0 0.235,0.052 L 24.548,4.535 A 0.191,0.191 0 0 0 24.614,4.257 L 24.572,4.198 C 24.4,3.958 23.919,3.403 22.977,3.066 23.319,3.047 23.76,3.033 23.999,3.033 c 4.698,0 8.964,1.701 11.702,4.668 2.59,2.807 3.719,6.554 3.353,11.137 a 43.37,43.37 0 0 1 -0.944,6.087 l -0.051,0.27 a 0.254,0.254 0 0 0 0.247,0.3 h 0.362 a 0.255,0.255 0 0 0 0.154,-0.054 l 0.057,-0.045 c 0.245,-0.187 0.546,-0.236 0.716,-0.115 0.343,0.242 0.35,1.053 0.019,2.064 l -0.335,1.03 -0.01,0.027 c -0.192,0.595 -0.39,1.21 -0.637,1.943 -0.389,1.152 -1.092,1.899 -1.898,2.024 l 0.063,-0.145 c 0.047,-0.11 0.095,-0.22 0.142,-0.336 a 0.255,0.255 0 0 0 -0.143,-0.327 l -0.408,-0.16 a 0.255,0.255 0 0 0 -0.324,0.141 c -1.775,4.454 -3.995,7.823 -6.986,10.603 -1.625,1.51 -3.206,1.82 -5.079,1.82 -1.873,0 -3.453,-0.31 -5.079,-1.821 -2.992,-2.78 -5.211,-6.15 -6.985,-10.602 a 0.252,0.252 0 0 0 -0.325,-0.14 l -0.408,0.16 a 0.252,0.252 0 0 0 -0.141,0.327 c 0.045,0.114 0.092,0.222 0.14,0.332 l 0.061,0.143 A 0.45,0.45 0 0 1 11.223,32.358 C 10.427,32.212 9.751,31.478 9.368,30.344 A 142.07,142.07 0 0 1 8.74,28.433 l -0.353,-1.09 c -0.333,-1.01 -0.325,-1.82 0.018,-2.062 0.175,-0.123 0.47,-0.072 0.734,0.129 l 0.067,0.042 a 0.25,0.25 0 0 0 0.15,0.038 L 9.713,25.466 A 0.224,0.224 0 0 0 9.827,25.427 0.261,0.261 0 0 0 9.96,25.425 c 0.352,-0.089 0.698,-0.396 0.95,-0.843 0.41,-0.727 0.704,-1.79 1.044,-3.019 0.684,-2.48 1.537,-5.566 3.756,-6.965 2.486,-1.568 4.627,-1.291 7.106,-0.971 2.38,0.306 5.074,0.652 8.572,-0.574 l 0.08,0.052 c 0.257,1.897 1.445,4.389 4.016,5.73 a 0.37637515,0.37637515 0 1 0 0.347,-0.668 C 33.437,16.918 32.383,14.598 32.195,12.843 A 0.38,0.38 0 0 0 32.023,12.565 L 31.636,12.32 a 0.37,0.37 0 0 0 -0.33,-0.037 c -3.418,1.24 -6.063,0.898 -8.406,0.595 -2.512,-0.322 -4.882,-0.625 -7.592,1.083 -2.466,1.554 -3.361,4.796 -4.08,7.401 -0.327,1.182 -0.608,2.203 -0.973,2.85 -0.153,0.27 -0.314,0.404 -0.42,0.46 A 42.807,42.807 0 0 1 8.945,18.838 C 8.202,9.518 13.799,5.759 17.203,4.348 a 0.635,0.635 0 0 1 0.045,-0.019 c 0.42,0.184 0.813,0.318 1.167,0.398 0.876,0.197 1.312,0.622 1.494,0.858 l 0.032,0.041 a 0.19,0.19 0 0 0 0.236,0.052 l 0.53,-0.277 A 0.191,0.191 0 0 0 20.804,5.277 0.184,0.184 0 0 0 20.774,5.123 L 20.731,5.063 C 20.523,4.773 19.9,4.065 18.629,3.777 17.971,3.63 17.157,3.259 16.394,2.762 l -0.05,-0.034 a 0.19,0.19 0 0 0 -0.261,0.051 l -0.334,0.492 a 0.189,0.189 0 0 0 0.053,0.266 l 0.053,0.033 c 0.112,0.073 0.226,0.141 0.338,0.207 -5.757,2.681 -8.74,8.19 -8.185,15.136 a 43.8,43.8 0 0 0 0.777,5.363 1.362,1.362 0 0 0 -0.923,0.237 c -0.423,0.298 -1.033,1.102 -0.37,3.124 l 0.334,1.026 c 0.209,0.648 0.402,1.245 0.65,1.982 0.668,1.978 2.005,2.684 3.034,2.684 0.05,0 0.1,-0.005 0.15,-0.01 l 0.008,-0.001 c 1.733,3.91 3.835,6.935 6.612,9.515 1.959,1.821 3.907,2.072 5.72,2.072 1.812,0 3.76,-0.25 5.72,-2.071 2.776,-2.582 4.879,-5.606 6.612,-9.516 h 0.007 c 0.05,0.006 0.101,0.01 0.152,0.01 1.028,0 2.365,-0.705 3.032,-2.683 0.253,-0.748 0.453,-1.364 0.652,-1.982 l 0.332,-1.025 c 0.664,-2.023 0.054,-2.826 -0.368,-3.125 m -16.112,6.522 c 0.46,0 0.934,-0.072 1.446,-0.22 A 0.377,0.377 0 0 0 25.266,30.09 c -0.892,0.259 -1.587,0.258 -2.479,0 a 0.374,0.374 0 0 0 -0.466,0.257 c -0.057,0.2 0.059,0.41 0.258,0.467 0.513,0.149 0.987,0.22 1.448,0.22" />
</svg>