<?xml version="1.0" encoding="UTF-8" standalone="no"?>
<svg
   version="1.1"
   width="24"
   height="24"
   viewBox="0 0 24 24"
   id="svg438"
   sodipodi:docname="hazardous.svg"
   inkscape:version="1.2.2 (732a01da63, 2022-12-09)"
   xmlns:inkscape="http://www.inkscape.org/namespaces/inkscape"
   xmlns:sodipodi="http://sodipodi.sourceforge.net/DTD/sodipodi-0.dtd"
   xmlns="http://www.w3.org/2000/svg"
   xmlns:svg="http://www.w3.org/2000/svg">
  <defs
     id="defs442" />
  <sodipodi:namedview
     id="namedview440"
     pagecolor="#ffffff"
     bordercolor="#000000"
     borderopacity="0.25"
     inkscape:showpageshadow="2"
     inkscape:pageopacity="0.0"
     inkscape:pagecheckerboard="0"
     inkscape:deskcolor="#d1d1d1"
     showgrid="false"
     inkscape:zoom="17.791667"
     inkscape:cx="-8.4028103"
     inkscape:cy="20.796253"
     inkscape:window-width="2560"
     inkscape:window-height="1369"
     inkscape:window-x="-8"
     inkscape:window-y="-8"
     inkscape:window-maximized="1"
     inkscape:current-layer="svg438" />
  <style
     id="style435">path{fill:#000}@media (prefers-color-scheme:dark){path{fill:#fff}}</style>
  <path
     id="path60"
     d="m 8.6548195,19.349236 c 0.1389186,-1.159436 1.6135935,-2.073094 3.3586255,-2.077368 1.744497,0.0048 3.220241,0.920069 3.35916,2.084314 0.228681,1.631759 0.246313,1.866853 0.246313,1.899979 0,1.281792 -1.617334,2.327957 -3.605473,2.333299 -1.987605,-0.0054 -3.6054732,-1.051507 -3.6054732,-2.333299 0,-0.03312 0.017632,-0.26822 0.2468477,-1.906925 M 12.01291,7.8403615 c 2.712654,0.00376 4.904897,1.1540934 5.455229,2.8622575 0.647574,2.013786 -0.746956,5.08656 -2.422528,7.252087 -0.712759,-0.675892 -1.837466,-1.081428 -3.018809,-1.087839 h -0.02725 c -1.180808,0.0064 -2.3055145,0.411947 -3.0177396,1.087839 C 7.30624,15.789179 5.9117106,12.716405 6.5592852,10.702619 7.1096167,8.9944549 9.3013254,7.8441016 12.013445,7.8403615 m 8.60975,4.2835025 A 0.72985715,0.72985715 0 0 0 20.129499,11.9967 C 20.330931,11.029612 20.470384,10.065731 20.544652,9.1312358 20.748756,6.5719273 20.083549,4.3828901 18.621164,2.8002862 17.061,1.1129591 14.647556,0.14480296 12.000087,0.14480296 c -0.672152,0 -1.268434,0.0662535 -1.607182,0.12930125 A 4.7638407,4.7638407 0 0 1 9.9879041,0.03954537 L 9.9606547,0.02191339 A 0.10151747,0.10151747 0 0 0 9.821736,0.04969712 L 9.643279,0.31150538 a 0.10044886,0.10044886 0 0 0 0.028318,0.14159015 l 0.028318,0.0187006 c 0.457897,0.300278 0.956936,0.5257536 1.367814,0.61818797 0.468049,0.1052575 0.701005,0.3323361 0.798248,0.4578972 l 0.0171,0.02244 a 0.10151747,0.10151747 0 0 0 0.126096,0.02725 l 0.283714,-0.1480018 a 0.10151747,0.10151747 0 0 0 0.03526,-0.148536 l -0.02244,-0.031524 c -0.0919,-0.1282324 -0.3489,-0.42423596 -0.852213,-0.6053645 0.182731,-0.009617 0.418359,-0.0170977 0.546057,-0.0170977 2.510687,0 4.789487,0.9083142 6.252407,2.4941239 1.383844,1.4992527 1.986537,3.501284 1.791516,5.9505264 A 23.184987,23.184987 0 0 1 19.539095,12.34453 l -0.02725,0.144262 a 0.13517853,0.13517853 0 0 0 0.131973,0.159222 h 0.193417 a 0.13571283,0.13571283 0 0 0 0.08228,-0.02778 l 0.03046,-0.02458 c 0.129835,-0.09992 0.291729,-0.126095 0.383094,-0.06144 0.182732,0.129836 0.186472,0.562086 0.0096,1.1028 l -0.17899,0.550332 c -0.117547,0.362257 -0.216393,0.670015 -0.345694,1.052576 -0.207844,0.614982 -0.583459,1.01464 -1.014107,1.081428 l 0.03366,-0.07747 c 0.02511,-0.05878 0.05076,-0.117546 0.07534,-0.179525 a 0.13517853,0.13517853 0 0 0 -0.07587,-0.17472 l -0.217996,-0.08549 a 0.13624713,0.13624713 0 0 0 -0.173114,0.0748 c -0.689236,1.729533 -1.519542,3.167342 -2.537923,4.391963 -0.03634,-0.269289 -0.08014,-0.590939 -0.133575,-0.969759 -0.04328,-0.363326 -0.195555,-0.714363 -0.45202,-1.04189 1.766938,-2.261168 3.230927,-5.506521 2.530991,-7.681132 C 17.250143,8.7027255 14.902953,7.4396343 12.013445,7.43536 9.1244713,7.43963 6.7778149,8.7027255 6.1740531,10.578127 c -0.6999362,2.174611 0.7640526,5.419964 2.5309908,7.681132 -0.2564652,0.328062 -0.4082071,0.678564 -0.4509513,1.040821 -0.055568,0.391644 -0.1004489,0.723446 -0.13785,0.999146 -1.0306695,-1.233705 -1.86899,-2.680062 -2.5619803,-4.41975 a 0.13571283,0.13571283 0 0 0 -0.1741826,-0.0748 l -0.2179954,0.08549 a 0.13464422,0.13464422 0 0 0 -0.074802,0.174717 c 0.024044,0.06144 0.04969,0.120752 0.074802,0.180594 a 1.1220352,1.1220352 0 0 1 0.032058,0.0732 0.24043611,0.24043611 0 0 1 -0.020838,-0.0032 C 4.7479998,16.237457 4.3868113,15.845283 4.1821735,15.239383 4.0518037,14.85522 3.9476147,14.531433 3.8466316,14.218332 l -0.1891431,-0.58239 c -0.1773884,-0.539646 -0.173114,-0.97243 0.010152,-1.102266 0.093503,-0.06572 0.2511221,-0.03847 0.3927123,0.06946 l 0.035264,0.02244 a 0.13624713,0.13624713 0 0 0 0.080145,0.0203 l 0.1912803,-0.01229 a 0.12235526,0.12235526 0 0 0 0.060376,-0.02137 0.12823259,0.12823259 0 0 0 0.071596,-0.0016 C 4.68602,12.564136 4.8714229,12.4001 5.0066015,12.161267 5.2256655,11.772295 5.3822161,11.204866 5.563879,10.547674 5.9293426,9.2226016 6.3845683,7.57321 7.5707198,6.8262553 8.8989957,5.988469 10.042937,6.1359365 11.367473,6.3074476 c 1.27164,0.1634965 2.711051,0.3478309 4.580041,-0.3061553 l 0.04274,0.026715 c 0.137315,1.014106 0.771533,2.3455877 2.145758,3.0615531 a 0.20303494,0.20303494 0 0 0 0.270892,-0.085489 0.19876051,0.19876051 0 0 0 0.01336,-0.1538787 0.19769191,0.19769191 0 0 0 -0.09885,-0.1175464 C 17.042299,8.0658372 16.479145,6.8262553 16.378696,5.8885545 a 0.20356924,0.20356924 0 0 0 -0.0919,-0.1485361 L 16.080021,5.6091143 a 0.19876051,0.19876051 0 0 0 -0.17632,-0.019235 C 14.077455,6.2513458 12.664759,6.0691487 11.412355,5.9072551 10.069652,5.735744 8.8033555,5.5738503 7.3559302,6.4859046 6.0383403,7.3156762 5.5601396,9.0489535 5.1754418,10.440811 c -0.1741826,0.630477 -0.3243215,1.176 -0.5198763,1.522762 -0.081214,0.144262 -0.1667023,0.215324 -0.224407,0.244711 A 22.861734,22.861734 0 0 1 3.9566979,9.0916976 C 3.5591769,4.1114645 6.5496678,2.1035559 8.367899,1.349655 L 8.3924769,1.339503 C 8.616884,1.4383492 8.8268648,1.5094114 9.0165422,1.5521556 9.4840569,1.6579475 9.7170127,1.8844917 9.8142558,2.010587 l 0.017098,0.021372 A 0.10151747,0.10151747 0 0 0 9.9574492,2.060277 L 10.241698,1.9117412 a 0.10258608,0.10258608 0 0 0 0.05076,-0.066254 0.09991456,0.09991456 0 0 0 -0.01603,-0.082283 l -0.02244,-0.03099 C 10.142318,1.5761993 9.8094471,1.1979132 9.1303487,1.0451027 8.7793119,0.9660259 8.3438554,0.76833398 7.9361826,0.50225136 L 7.9094676,0.48408508 A 0.10151747,0.10151747 0 0 0 7.7705489,0.51186878 L 7.5915576,0.7742113 a 0.09991456,0.09991456 0 0 0 0.028318,0.14159016 l 0.028318,0.0181662 C 7.7075013,0.97297166 7.7689459,1.00877 7.8293221,1.044034 4.7528085,2.4770332 3.1595186,5.4210397 3.4555221,9.1317707 A 23.402448,23.402448 0 0 0 3.8706752,11.997234 0.72397987,0.72397987 0 0 0 3.3769796,12.12333 C 3.151504,12.28362 2.8255795,12.712665 3.1798221,13.793025 l 0.178457,0.548194 c 0.1116692,0.346228 0.2147896,0.665206 0.3472966,1.058988 0.3574484,1.057384 1.0718107,1.434067 1.6210737,1.434067 0.026715,0 0.05343,-0.0026 0.080145,-0.0054 l 0.00428,-5.34e-4 c 0.7148967,1.613059 1.5719178,2.96805 2.6196849,4.140844 -0.018166,0.159222 -0.026715,0.250588 -0.026715,0.28692 0,1.499787 1.7925848,2.727614 3.9960481,2.7383 h 0.02778 c 2.203463,-0.01068 3.996582,-1.238513 3.996582,-2.7383 0,-0.03794 -0.0096,-0.138918 -0.03046,-0.314704 1.036547,-1.16745 1.885553,-2.513359 2.595107,-4.11306 h 0.0032 c 0.02672,0.0032 0.05343,0.0054 0.08121,0.0054 0.549263,0 1.264159,-0.376149 1.621074,-1.434067 0.134644,-0.399124 0.241504,-0.728255 0.347296,-1.057919 l 0.177923,-0.548195 c 0.354777,-1.080893 0.02886,-1.509939 -0.196623,-1.669695 m -6.622145,0.01282 c 0,-0.782219 0.471255,-1.418573 1.04937,-1.418573 0.57865,0 1.049905,0.636354 1.049905,1.418573 0,0.781685 -0.471255,1.418573 -1.049905,1.418573 -0.578115,0 -1.04937,-0.636888 -1.04937,-1.418573 m 1.04937,1.820903 c 0.80092,0 1.4517,-0.816949 1.4517,-1.820903 0,-1.003954 -0.65078,-1.820903 -1.4517,-1.820903 -0.800385,0 -1.451165,0.817483 -1.451165,1.820903 0,1.003954 0.65078,1.820903 1.451165,1.820903 m -7.1521658,-1.8209 c 0,-0.782219 0.4712548,-1.418573 1.04937,-1.418573 0.5786496,0 1.0499044,0.636354 1.0499044,1.418573 0,0.781685 -0.4712548,1.418573 -1.0499044,1.418573 -0.5781152,0 -1.04937,-0.636888 -1.04937,-1.418573 m 1.04937,1.820903 c 0.8009194,0 1.4516998,-0.816948 1.4516998,-1.820903 0,-1.003954 -0.6507804,-1.820903 -1.4516998,-1.820903 -0.8003851,0 -1.4511655,0.817483 -1.4511655,1.820903 0,1.003955 0.6507804,1.820903 1.4511655,1.820903 m 0.9964741,6.140204 c 0.5326997,-0.329665 1.2743117,-0.516671 2.0554617,-0.516671 0.78115,0 1.522762,0.187006 2.055996,0.516671 z M 9.205151,21.030686 C 9.237209,20.846351 9.3253691,20.66736 9.4669592,20.499589 h 5.0651868 c 0.141591,0.168306 0.229216,0.346762 0.261809,0.531097 z m 4.719493,1.335756 c -0.524684,0.284784 -1.202714,0.4408 -1.925091,0.4408 -0.722911,0 -1.399873,-0.156016 -1.924558,-0.4408 z m 0.853282,-0.933426 c -0.04862,0.187005 -0.153345,0.365463 -0.310964,0.530562 H 9.5321441 C 9.3745249,21.797944 9.2703359,21.620021 9.2211801,21.433016 Z m -2.778373,1.77709 c 1.772281,0 3.213829,-0.904574 3.213829,-2.015923 0,-1.11135 -1.441548,-2.015389 -3.213829,-2.015389 -1.772281,0 -3.2143637,0.904039 -3.2143637,2.015389 0,1.111349 1.4426167,2.015923 3.2143637,2.015923 z"
     style="stroke-width:0.534302" />
</svg>
