<?xml version="1.0" encoding="UTF-8" standalone="no"?>
<svg
   version="1.1"
   width="24"
   height="24"
   viewBox="0 0 24 24"
   id="svg282"
   sodipodi:docname="poor.svg"
   inkscape:version="1.2.2 (732a01da63, 2022-12-09)"
   xmlns:inkscape="http://www.inkscape.org/namespaces/inkscape"
   xmlns:sodipodi="http://sodipodi.sourceforge.net/DTD/sodipodi-0.dtd"
   xmlns="http://www.w3.org/2000/svg"
   xmlns:svg="http://www.w3.org/2000/svg">
  <defs
     id="defs286" />
  <sodipodi:namedview
     id="namedview284"
     pagecolor="#ffffff"
     bordercolor="#000000"
     borderopacity="0.25"
     inkscape:showpageshadow="2"
     inkscape:pageopacity="0.0"
     inkscape:pagecheckerboard="0"
     inkscape:deskcolor="#d1d1d1"
     showgrid="false"
     inkscape:zoom="35.583333"
     inkscape:cx="11.114754"
     inkscape:cy="9.7517564"
     inkscape:window-width="2560"
     inkscape:window-height="1369"
     inkscape:window-x="-8"
     inkscape:window-y="-8"
     inkscape:window-maximized="1"
     inkscape:current-layer="svg282" />
  <style
     id="style279">path{fill:#000}@media (prefers-color-scheme:dark){path{fill:#fff}}</style>
  <path
     id="path60"
     d="M 5.0855857,17.036198 A 1.6576048,1.6576048 0 0 1 4.825471,16.996088 l -0.013368,-0.0044 C 4.569812,16.925968 4.1231053,16.693697 3.8501798,15.885503 3.713717,15.481128 3.6034328,15.14025 3.4976046,14.811625 L 3.303772,14.215056 c -0.184921,-0.563675 -0.1804651,-1.014838 0.010026,-1.149629 0.095245,-0.06796 0.2673556,-0.04122 0.3982484,0.06405 0.055699,0.044 0.075751,0.08076 0.081878,0.103043 0.2656846,1.021522 0.6834278,2.284776 1.1178807,3.379263 l 0.1737811,0.424984 z M 18.325815,17.46898 c -0.926275,2.048055 -2.038586,3.634365 -3.496788,4.988967 -0.90511,0.841613 -1.785713,1.013724 -2.829514,1.013724 -1.042687,0 -1.923289,-0.172111 -2.8283994,-1.013724 -1.4587591,-1.355159 -2.5705128,-2.941468 -3.4967885,-4.988967 0.3197127,-0.0095 0.725202,-0.07352 1.3011305,-0.40549 a 35.575006,35.575006 0 0 0 1.4548601,-0.895084 l 0.013368,-0.0084 c 1.3167264,-0.841056 2.3571853,-1.505547 3.5563863,-1.506103 1.199201,5.56e-4 2.239103,0.665047 3.556944,1.506103 a 36.427202,36.427202 0 0 0 1.467671,0.903439 c 0.575928,0.331966 0.981417,0.395464 1.30113,0.40549 z m 2.37111,-3.25394 -0.19439,0.596537 c -0.105828,0.329181 -0.216112,0.669502 -0.352575,1.074435 -0.272925,0.808194 -0.719632,1.039902 -0.961923,1.105627 l -0.01225,0.0044 c -0.06796,0.01782 -0.155958,0.03119 -0.26123,0.04066 l 0.173782,-0.424984 c 0.434453,-1.09393 0.852196,-2.357185 1.117324,-3.378149 a 0.23393616,0.23393616 0 0 1 0.08243,-0.104158 0.44392171,0.44392171 0 0 1 0.267356,-0.101372 c 0.05013,0 0.0958,0.01225 0.130893,0.03732 0.191048,0.134792 0.194946,0.585955 0.01058,1.14963 z m 0.29242,-1.577399 a 0.75750756,0.75750756 0 0 0 -0.51466,-0.132564 C 20.684671,11.496924 20.829489,10.492112 20.907468,9.5179354 21.120238,6.8499495 20.426785,4.567958 18.902301,2.9181511 17.275887,1.159174 14.75996,0.14990653 12.00007,0.14990653 c -0.700694,0 -1.322296,0.0690669 -1.674871,0.13479179 A 4.9215711,4.9215711 0 0 1 9.9024426,0.04017934 L 9.8740361,0.02124164 A 0.10582826,0.10582826 0 0 0 9.7292184,0.05020517 l -0.186035,0.27348251 a 0.10582826,0.10582826 0 0 0 0.029521,0.14760258 l 0.02952,0.0194947 C 10.079009,0.80325677 10.599238,1.038307 11.028678,1.1352234 c 0.487367,0.1097272 0.730215,0.3464483 0.831587,0.4778981 l 0.01838,0.022837 a 0.10582826,0.10582826 0 0 0 0.130893,0.028407 L 12.3053,1.5100787 a 0.10638525,0.10638525 0 0 0 0.03676,-0.1548434 l -0.02339,-0.032305 c -0.0958,-0.1336778 -0.363715,-0.44280776 -0.8884,-0.63162766 0.191047,-0.0100258 0.437237,-0.0178237 0.569244,-0.0178237 2.616743,0 4.992866,0.94744146 6.517907,2.60003326 1.442606,1.5629163 2.071449,3.6505181 1.86759,6.2032072 a 23.482734,23.482734 0 0 1 -0.525243,3.3892896 c -0.262342,1.136818 -0.865563,2.931443 -1.406401,4.184672 -0.372627,0.0056 -0.707379,-0.05514 -1.21981,-0.350904 a 35.611767,35.611767 0 0 1 -1.450961,-0.893971 c -1.320069,-0.84217 -2.459115,-1.5696 -3.784753,-1.571828 -1.320068,0.0017 -2.4596715,0.729101 -3.7802968,1.571828 A 35.155034,35.155034 0 0 1 6.766027,16.699776 C 6.2535955,16.994981 5.9143881,17.05625 5.5473311,17.05068 5.0560652,15.914418 4.519126,14.350945 4.2027552,13.138933 4.3904611,13.083233 4.5742681,12.916137 4.7096169,12.676631 4.9379831,12.271698 5.1011815,11.679617 5.2905584,10.994518 5.6715401,9.6131808 6.1466533,7.8937505 7.3826159,7.1145202 8.7672953,6.2417155 9.9598126,6.396002 11.340593,6.5742391 12.666231,6.7446783 14.166764,6.937397 16.115119,6.2550833 l 0.04456,0.028407 c 0.143147,1.0566116 0.804852,2.4446323 2.236875,3.191557 a 0.20963816,0.20963816 0 1 0 0.193278,-0.37207 C 17.256393,8.4067391 16.669325,7.1150771 16.56461,6.1381152 A 0.21165652,0.21165652 0 0 0 16.46881,5.9827147 L 16.253253,5.846252 A 0.20608662,0.20608662 0 0 0 16.069446,5.8256433 C 14.165651,6.516312 12.69241,6.3258211 11.38738,6.1570529 9.9882192,5.9777018 8.6681508,5.8089336 7.1587056,6.760274 5.7851662,7.6258374 5.2866594,9.4310451 4.886183,10.882563 c -0.182136,0.658363 -0.3386505,1.227051 -0.5419522,1.587424 -0.08522,0.150388 -0.174895,0.225025 -0.2339361,0.256216 A 23.850348,23.850348 0 0 1 3.6145729,9.4767184 C 3.2007286,4.2855636 6.3182065,2.191835 8.2142033,1.4059209 l 0.025065,-0.010583 c 0.2339361,0.1030437 0.4528335,0.1776805 0.6500083,0.2216827 0.487924,0.1102842 0.730772,0.3464483 0.8321443,0.4778982 l 0.017823,0.02228 a 0.10582826,0.10582826 0 0 0 0.1314499,0.02952 L 10.165899,1.9918753 a 0.10582826,0.10582826 0 0 0 0.03732,-0.1542864 l -0.02395,-0.033419 C 10.063413,1.642642 9.7164076,1.2482925 9.0084722,1.0884361 8.6419723,1.0060015 8.1885817,0.7993579 7.7635976,0.52253341 L 7.7357481,0.50359572 A 0.10582826,0.10582826 0 0 0 7.5903735,0.53200225 L 7.4043386,0.80604177 a 0.10527127,0.10527127 0 0 0 0.029521,0.14815955 l 0.029521,0.018381 C 7.5257636,1.0132424 7.5892605,1.051118 7.6516435,1.0878794 4.4450472,2.5811719 2.7835435,5.6496345 3.0926734,9.5179354 3.1700954,10.4871 3.3154697,11.491354 3.5254553,12.505634 a 0.75750756,0.75750756 0 0 0 -0.5141026,0.132007 c -0.2356071,0.165984 -0.5753715,0.613804 -0.2060865,1.739483 l 0.1860349,0.57203 c 0.1102842,0.343663 0.2216824,0.687326 0.362044,1.103955 0.3720699,1.101728 1.1167667,1.494964 1.6899103,1.494964 0.02785,0 0.056256,-0.0028 0.084106,-0.0056 h 0.0039 c 0.9663791,2.178391 2.1371739,3.863289 3.6828235,5.299768 1.091702,1.013724 2.1761631,1.153528 3.1859881,1.153528 1.009267,0 2.094285,-0.139248 3.185987,-1.154085 1.546207,-1.437036 2.717001,-3.121377 3.683381,-5.299768 h 0.0028 c 0.02785,0.0034 0.05625,0.0056 0.08522,0.0056 0.572586,0 1.317284,-0.392678 1.688796,-1.494406 0.143147,-0.422756 0.257887,-0.777002 0.363158,-1.103956 l 0.184921,-0.570916 c 0.369842,-1.126792 0.03008,-1.574056 -0.204972,-1.740596 z M 16.492201,11.08308 a 0.20998555,0.20998555 0 0 0 -0.209429,-0.209986 h -2.448531 a 0.209986,0.209986 0 0 0 0,0.419972 h 2.448531 c 0.115298,0 0.209429,-0.09469 0.209429,-0.209986 m -2.289232,1.62697 c 0,0.291863 0.375412,0.520229 0.854981,0.520229 0.471771,0 0.855538,-0.233936 0.855538,-0.520229 0,-0.287407 -0.383767,-0.520786 -0.855538,-0.520786 -0.471214,0 -0.854981,0.233936 -0.854981,0.520786 M 10.363631,11.08308 A 0.20998555,0.20998555 0 0 0 10.154202,10.873094 H 7.7056706 a 0.209986,0.209986 0 0 0 0,0.419972 h 2.4485314 c 0.115854,0 0.209429,-0.09469 0.209429,-0.209986 m -2.2886754,1.62697 c 0,0.291863 0.3754118,0.520229 0.8544239,0.520229 0.4717713,0 0.855538,-0.233936 0.855538,-0.520229 0,-0.287407 -0.3837667,-0.520786 -0.855538,-0.520786 -0.4712142,0 -0.8544239,0.233936 -0.8544239,0.520786 m 5.9893224,5.08087 H 9.936419 a 0.209986,0.209986 0 0 0 0,0.419972 h 4.127302 a 0.209986,0.209986 0 0 0 0,-0.419972 m 5.57e-4,1.232065 H 9.936419 a 0.20998555,0.20998555 0 0 0 0,0.419413 h 4.127302 a 0.20998555,0.20998555 0 0 0 0,-0.419413 m 5.57e-4,1.23262 H 9.936419 a 0.20998555,0.20998555 0 0 0 0,0.418858 h 4.127302 a 0.20998555,0.20998555 0 0 0 0,-0.419415"
     style="stroke-width:0.556991" />
</svg>
