<svg xmlns="http://www.w3.org/2000/svg" xmlns:xlink="http://www.w3.org/1999/xlink" version="1.1"  width="24" height="24" viewBox="0 0 24 24">
<style>path{fill:#000}@media (prefers-color-scheme:dark){path{fill:#fff}}</style>
<path
         id="path60"
         d="M 11.586,32.41 A 2.976,2.976 0 0 1 11.119,32.338 L 11.095,32.33 C 10.66,32.212 9.858,31.795 9.368,30.344 9.123,29.618 8.925,29.006 8.735,28.416 L 8.387,27.345 c -0.332,-1.012 -0.324,-1.822 0.018,-2.064 0.171,-0.122 0.48,-0.074 0.715,0.115 0.1,0.079 0.136,0.145 0.147,0.185 0.477,1.834 1.227,4.102 2.007,6.067 l 0.312,0.763 z m 23.771,0.777 c -1.663,3.677 -3.66,6.525 -6.278,8.957 -1.625,1.511 -3.206,1.82 -5.08,1.82 -1.872,0 -3.453,-0.309 -5.078,-1.82 -2.619,-2.433 -4.615,-5.281 -6.278,-8.957 0.574,-0.017 1.302,-0.132 2.336,-0.728 a 63.87,63.87 0 0 0 2.612,-1.607 l 0.024,-0.015 c 2.364,-1.51 4.232,-2.703 6.385,-2.704 2.153,0.001 4.02,1.194 6.386,2.704 a 65.4,65.4 0 0 0 2.635,1.622 c 1.034,0.596 1.762,0.71 2.336,0.728 z m 4.257,-5.842 -0.349,1.071 c -0.19,0.591 -0.388,1.202 -0.633,1.929 -0.49,1.451 -1.292,1.867 -1.727,1.985 l -0.022,0.008 c -0.122,0.032 -0.28,0.056 -0.469,0.073 l 0.312,-0.763 c 0.78,-1.964 1.53,-4.232 2.006,-6.065 a 0.42,0.42 0 0 1 0.148,-0.187 0.797,0.797 0 0 1 0.48,-0.182 c 0.09,0 0.172,0.022 0.235,0.067 0.343,0.242 0.35,1.052 0.019,2.064 z m 0.525,-2.832 a 1.36,1.36 0 0 0 -0.924,-0.238 c 0.377,-1.81 0.637,-3.614 0.777,-5.363 0.382,-4.79 -0.863,-8.887 -3.6,-11.849 C 33.472,3.905 28.955,2.093 24,2.093 c -1.258,0 -2.374,0.124 -3.007,0.242 A 8.836,8.836 0 0 1 20.234,1.896 L 20.183,1.862 a 0.19,0.19 0 0 0 -0.26,0.052 l -0.334,0.491 a 0.19,0.19 0 0 0 0.053,0.265 l 0.053,0.035 c 0.856,0.561 1.79,0.983 2.561,1.157 0.875,0.197 1.311,0.622 1.493,0.858 l 0.033,0.041 a 0.19,0.19 0 0 0 0.235,0.051 L 24.548,4.535 A 0.191,0.191 0 0 0 24.614,4.257 L 24.572,4.199 C 24.4,3.959 23.919,3.404 22.977,3.065 23.32,3.047 23.762,3.033 23.999,3.033 c 4.698,0 8.964,1.701 11.702,4.668 2.59,2.806 3.719,6.554 3.353,11.137 a 42.16,42.16 0 0 1 -0.943,6.085 c -0.471,2.041 -1.554,5.263 -2.525,7.513 -0.669,0.01 -1.27,-0.099 -2.19,-0.63 a 63.936,63.936 0 0 1 -2.605,-1.605 c -2.37,-1.512 -4.415,-2.818 -6.795,-2.822 -2.37,0.003 -4.416,1.309 -6.787,2.822 a 63.116,63.116 0 0 1 -2.606,1.605 c -0.92,0.53 -1.529,0.64 -2.188,0.63 -0.882,-2.04 -1.846,-4.847 -2.414,-7.023 0.337,-0.1 0.667,-0.4 0.91,-0.83 0.41,-0.727 0.703,-1.79 1.043,-3.02 0.684,-2.48 1.537,-5.567 3.756,-6.966 2.486,-1.567 4.627,-1.29 7.106,-0.97 2.38,0.306 5.074,0.652 8.572,-0.573 l 0.08,0.051 c 0.257,1.897 1.445,4.389 4.016,5.73 a 0.37637515,0.37637515 0 1 0 0.347,-0.668 c -2.394,-1.25 -3.448,-3.569 -3.636,-5.323 A 0.38,0.38 0 0 0 32.023,12.565 L 31.636,12.32 a 0.37,0.37 0 0 0 -0.33,-0.037 c -3.418,1.24 -6.063,0.898 -8.406,0.595 -2.512,-0.322 -4.882,-0.625 -7.592,1.083 -2.466,1.554 -3.361,4.795 -4.08,7.401 -0.327,1.182 -0.608,2.203 -0.973,2.85 -0.153,0.27 -0.314,0.404 -0.42,0.46 A 42.82,42.82 0 0 1 8.945,18.838 C 8.202,9.518 13.799,5.759 17.203,4.348 l 0.045,-0.019 c 0.42,0.185 0.813,0.319 1.167,0.398 0.876,0.198 1.312,0.622 1.494,0.858 l 0.032,0.04 a 0.19,0.19 0 0 0 0.236,0.053 L 20.707,5.4 A 0.19,0.19 0 0 0 20.774,5.123 L 20.731,5.063 C 20.523,4.773 19.9,4.065 18.629,3.778 17.971,3.63 17.157,3.259 16.394,2.762 l -0.05,-0.034 a 0.19,0.19 0 0 0 -0.261,0.051 l -0.334,0.492 a 0.189,0.189 0 0 0 0.053,0.266 l 0.053,0.033 c 0.112,0.073 0.226,0.141 0.338,0.207 -5.757,2.681 -8.74,8.19 -8.185,15.135 0.139,1.74 0.4,3.543 0.777,5.364 a 1.36,1.36 0 0 0 -0.923,0.237 c -0.423,0.298 -1.033,1.102 -0.37,3.123 l 0.334,1.027 c 0.198,0.617 0.398,1.234 0.65,1.982 0.668,1.978 2.005,2.684 3.034,2.684 0.05,0 0.101,-0.005 0.151,-0.01 h 0.007 c 1.735,3.911 3.837,6.936 6.612,9.515 1.96,1.82 3.907,2.071 5.72,2.071 1.812,0 3.76,-0.25 5.72,-2.072 2.776,-2.58 4.878,-5.604 6.613,-9.515 h 0.005 c 0.05,0.006 0.101,0.01 0.153,0.01 1.028,0 2.365,-0.705 3.032,-2.683 0.257,-0.759 0.463,-1.395 0.652,-1.982 l 0.332,-1.025 c 0.664,-2.023 0.054,-2.826 -0.368,-3.125 z m -8.074,-2.791 a 0.377,0.377 0 0 0 -0.376,-0.377 h -4.396 a 0.377,0.377 0 0 0 0,0.754 h 4.396 c 0.207,0 0.376,-0.17 0.376,-0.377 m -4.11,2.921 c 0,0.524 0.674,0.934 1.535,0.934 0.847,0 1.536,-0.42 1.536,-0.934 0,-0.516 -0.689,-0.935 -1.536,-0.935 -0.846,0 -1.535,0.42 -1.535,0.935 M 21.062,21.722 A 0.377,0.377 0 0 0 20.686,21.345 H 16.29 a 0.377,0.377 0 0 0 0,0.754 h 4.396 c 0.208,0 0.376,-0.17 0.376,-0.377 m -4.109,2.921 c 0,0.524 0.674,0.934 1.534,0.934 0.847,0 1.536,-0.42 1.536,-0.934 0,-0.516 -0.689,-0.935 -1.536,-0.935 -0.846,0 -1.534,0.42 -1.534,0.935 m 10.753,9.122 h -7.411 a 0.377,0.377 0 0 0 0,0.754 h 7.41 a 0.377,0.377 0 0 0 0,-0.754 m 0.001,2.212 h -7.411 a 0.377,0.377 0 0 0 0,0.753 h 7.41 a 0.377,0.377 0 0 0 0,-0.753 m 0.001,2.213 h -7.411 a 0.377,0.377 0 0 0 0,0.752 h 7.41 a 0.377,0.377 0 0 0 0,-0.753" />
</svg>