<?xml version="1.0" encoding="UTF-8" standalone="no"?>
<svg
   version="1.1"
   width="24"
   height="24"
   viewBox="0 0 24 24"
   id="svg305"
   sodipodi:docname="very-good.svg"
   inkscape:version="1.2.2 (732a01da63, 2022-12-09)"
   xmlns:inkscape="http://www.inkscape.org/namespaces/inkscape"
   xmlns:sodipodi="http://sodipodi.sourceforge.net/DTD/sodipodi-0.dtd"
   xmlns="http://www.w3.org/2000/svg"
   xmlns:svg="http://www.w3.org/2000/svg">
  <defs
     id="defs309" />
  <sodipodi:namedview
     id="namedview307"
     pagecolor="#ffffff"
     bordercolor="#000000"
     borderopacity="0.25"
     inkscape:showpageshadow="2"
     inkscape:pageopacity="0.0"
     inkscape:pagecheckerboard="0"
     inkscape:deskcolor="#d1d1d1"
     showgrid="false"
     inkscape:zoom="17.791667"
     inkscape:cx="-11.156909"
     inkscape:cy="17.81733"
     inkscape:window-width="2560"
     inkscape:window-height="1369"
     inkscape:window-x="-8"
     inkscape:window-y="-8"
     inkscape:window-maximized="1"
     inkscape:current-layer="svg305" />
  <style
     id="style302">path{fill:#000}@media (prefers-color-scheme:dark){path{fill:#fff}}</style>
  <path
     id="path60"
     d="m 15.927133,12.712535 c 0,-0.287858 -0.385116,-0.522617 -0.858545,-0.522617 -0.47287,0 -0.857426,0.234759 -0.857426,0.522617 0,0.292889 0.376172,0.522057 0.857426,0.522057 0.473429,0 0.858545,-0.234758 0.858545,-0.522057 m -7.0086518,0.522057 c 0.4739881,0 0.8591034,-0.234758 0.8591034,-0.522057 0,-0.287858 -0.3856743,-0.522617 -0.8591034,-0.522617 -0.4728701,0 -0.8579855,0.234759 -0.8579855,0.522617 0,0.292889 0.3767311,0.522057 0.8579855,0.522057 m 5.0825158,5.588924 c -0.225815,0.570686 -0.77582,1.470592 -2.001034,1.470592 -1.224097,0 -1.77522,-0.899906 -2.001035,-1.470592 z m -2.001034,1.89148 c 1.410785,0 2.215111,-1.056412 2.496821,-2.044632 A 0.20960557,0.20960557 0 0 0 14.294445,18.402068 H 9.7054803 A 0.21128241,0.21128241 0 0 0 9.502582,18.670364 c 0.2822689,0.98822 1.086595,2.044632 2.497381,2.044632 z m 4.439166,-9.340583 a 0.20792873,0.20792873 0 0 0 -0.0012,-0.160977 0.20848768,0.20848768 0 0 0 -0.115142,-0.113466 3.3732523,3.3732523 0 0 0 -1.251485,-0.244261 c -0.536032,0 -0.979278,0.134707 -1.257075,0.247614 a 0.21072347,0.21072347 0 0 0 0.07937,0.405238 0.20681083,0.20681083 0 0 0 0.07881,-0.01565 2.9652201,2.9652201 0 0 1 1.098892,-0.216312 c 0.467839,0 0.852955,0.116261 1.09442,0.214076 a 0.21240031,0.21240031 0 0 0 0.273885,-0.116263 m -6.424466,0.117939 A 0.20960557,0.20960557 0 0 0 10.287904,11.215672 0.21016452,0.21016452 0 0 0 10.17332,11.102764 3.377165,3.377165 0 0 0 8.9162454,10.855709 c -0.5337955,0 -0.9753646,0.13303 -1.2520439,0.244819 a 0.21072347,0.21072347 0 0 0 0.1587413,0.390146 2.9495696,2.9495696 0 0 1 1.0933026,-0.214077 c 0.4678397,0 0.8551908,0.117379 1.0988926,0.215754 m 11.005689,1.147521 a 0.76016954,0.76016954 0 0 0 -0.516468,-0.13303 c 0.210724,-1.011696 0.35605,-2.020039 0.434303,-2.9976393 C 21.15218,6.8318412 20.456289,4.5418304 18.926448,2.8862259 17.29432,1.1210675 14.769551,0.10825342 11.999963,0.10825342 c -0.703157,0 -1.326943,0.0693096 -1.680758,0.13526546 A 4.9634599,4.9634599 0 0 1 9.8949637,-0.00130042 L 9.8664573,-0.02086361 A 0.10620016,0.10620016 0 0 0 9.7211308,0.0082017 L 9.5344421,0.2832042 a 0.10452331,0.10452331 0 0 0 -0.016768,0.0804885 c 0.00559,0.0279474 0.022358,0.0525411 0.045834,0.0670738 l 0.030183,0.0195632 c 0.4784589,0.31356992 1.0005169,0.54944614 1.4314659,0.646703 0.48908,0.1101128 0.732781,0.3476658 0.83451,0.4795775 l 0.01789,0.022358 a 0.10620016,0.10620016 0 0 0 0.131911,0.029624 l 0.297361,-0.1553874 a 0.10508226,0.10508226 0 0 0 0.03633,-0.1548286 l -0.02348,-0.033537 c -0.09614,-0.1341476 -0.364993,-0.44436387 -0.891522,-0.63272939 0.19116,-0.01062 0.437656,-0.0184453 0.571804,-0.0184453 2.62538,0 5.009853,0.95077079 6.540252,2.60917009 1.447676,1.5689676 2.078729,3.6633465 1.874154,6.2250061 A 24.241583,24.241583 0 0 1 19.88672,12.870158 l -0.02851,0.150917 a 0.14197284,0.14197284 0 0 0 0.13806,0.167684 h 0.202339 a 0.14253179,0.14253179 0 0 0 0.08608,-0.03018 l 0.03186,-0.02515 c 0.136942,-0.104523 0.305186,-0.131911 0.400207,-0.06428 0.191719,0.135266 0.195632,0.588573 0.01062,1.15367 l -0.187247,0.575716 -0.0056,0.01509 c -0.107319,0.332574 -0.21799,0.676327 -0.356051,1.086037 -0.217431,0.643908 -0.610371,1.061442 -1.060883,1.13131 l 0.03522,-0.08105 c 0.02627,-0.06149 0.0531,-0.122969 0.07937,-0.187807 a 0.14253179,0.14253179 0 0 0 -0.07993,-0.182776 l -0.228051,-0.08943 a 0.14253179,0.14253179 0 0 0 -0.181099,0.07881 c -0.992133,2.489555 -2.232998,4.372652 -3.904812,5.926528 -0.90829,0.844011 -1.791988,1.017286 -2.838898,1.017286 -1.046351,0 -1.930048,-0.173275 -2.8388975,-1.017845 C 7.4881388,20.940813 6.2478328,19.057717 5.2562586,16.568721 a 0.14141389,0.14141389 0 0 0 -0.1822171,-0.07825 l -0.2274919,0.08943 a 0.14085494,0.14085494 0 0 0 -0.078812,0.182776 c 0.025712,0.06484 0.052541,0.126881 0.079371,0.188924 l 0.033537,0.07658 c -0.00782,-0.0011 -0.015092,-0.0017 -0.022358,-0.0034 C 4.4133648,16.943171 4.0355159,16.532906 3.8214387,15.899619 3.685608,15.498311 3.5766131,15.160706 3.4709719,14.833721 L 3.2731042,14.221673 c -0.1855708,-0.564538 -0.1816581,-1.017286 0.010061,-1.152552 0.097816,-0.06875 0.2627057,-0.04081 0.4102681,0.07211 l 0.037449,0.02347 c 0.025712,0.01565 0.055895,0.02236 0.083842,0.02124 l 0.1995445,-0.01342 a 0.1240865,0.1240865 0 0 0 0.06372,-0.0218 c 0.017327,0.0078 0.048629,0.0056 0.07434,-0.0011 0.1961909,-0.04919 0.3901459,-0.221343 0.5310008,-0.471193 C 4.9124984,12.272073 5.0768292,11.677911 5.2668715,10.990404 5.6491925,9.6041637 6.1259753,7.8792498 7.3662814,7.0978401 8.7552683,6.2220287 9.9514175,6.3762984 11.338168,6.5551618 12.668465,6.7262 14.174271,6.919596 16.129472,6.2343255 l 0.04471,0.029065 c 0.143649,1.0603248 0.80768,2.4532231 2.244735,3.2027727 A 0.21037537,0.21037537 0 1 0 18.612878,9.0927863 C 17.274757,8.3946603 16.685625,7.0979005 16.580543,6.1169464 A 0.21240031,0.21240031 0 0 0 16.484404,5.9615588 L 16.268091,5.8246165 A 0.20681083,0.20681083 0 0 0 16.083638,5.8039354 C 14.173153,6.4970312 12.694735,6.3058709 11.38512,6.1365096 9.9821596,5.9570873 8.6563345,5.7877259 7.141585,6.7418505 5.7637776,7.6098968 5.263519,9.4225659 4.8610762,10.878626 c -0.182776,0.660677 -0.3398404,1.231363 -0.5438565,1.593002 -0.08496,0.150357 -0.1743918,0.225257 -0.2347582,0.256558 A 23.948694,23.948694 0 0 1 3.5849976,9.4678409 C 3.1696991,4.2584437 6.2981321,2.1573574 8.2002328,1.3686816 l 0.025712,-0.01062 C 8.460703,1.4609081 8.6798108,1.5358072 8.8782374,1.580523 9.367317,1.6906359 9.6115773,1.9281888 9.7133059,2.0601006 l 0.017887,0.022917 a 0.10731805,0.10731805 0 0 0 0.1319117,0.029065 L 10.160464,1.956695 a 0.10508226,0.10508226 0 0 0 0.03633,-0.1548286 l -0.02404,-0.033537 C 10.055941,1.6062345 9.7077161,1.2104992 8.9978519,1.0495221 8.6300639,0.96735674 8.1745212,0.75998697 7.7486027,0.48218976 L 7.7206553,0.46318556 A 0.10508226,0.10508226 0 0 0 7.5747698,0.49169196 L 7.3880811,0.76669448 a 0.10452331,0.10452331 0 0 0 -0.016768,0.0804886 c 0.00559,0.0279471 0.022358,0.0525412 0.046393,0.0681919 l 0.029624,0.0184455 c 0.062043,0.040803 0.1263218,0.0788117 0.188924,0.11570222 -3.2178648,1.4985401 -4.8846482,4.5777857 -4.574991,8.4602402 0.077135,0.9703331 0.2235793,1.9786761 0.4348617,2.9976391 a 0.75681586,0.75681586 0 0 0 -0.5164681,0.13247 c -0.2364351,0.167685 -0.5768345,0.615961 -0.2068108,1.746155 l 0.1917192,0.590808 c 0.107877,0.333692 0.2196666,0.679681 0.3582858,1.089949 0.3733774,1.106717 1.1206911,1.500776 1.6958488,1.500776 0.027947,0 0.055895,-0.0028 0.083842,-0.0056 l 0.00447,-5.58e-4 c 0.9686573,2.185487 2.1435664,3.875746 3.6957655,5.318391 1.0949795,1.017845 2.1838108,1.158141 3.1971838,1.158141 1.012814,0 2.101645,-0.139737 3.197184,-1.157582 1.55164,-1.443204 2.727108,-3.133463 3.695765,-5.31895 h 0.0039 c 0.02795,0.0034 0.05645,0.0056 0.08496,0.0056 0.574599,0 1.321913,-0.394058 1.694731,-1.499658 0.141414,-0.418092 0.253204,-0.762405 0.364434,-1.107835 l 0.185571,-0.572922 c 0.371142,-1.130752 0.03018,-1.579587 -0.205693,-1.746713 m -9.8151,3.521931 c 0.286182,0.08272 0.551123,0.122969 0.808798,0.122969 0.257116,0 0.522058,-0.04025 0.808798,-0.122969 a 0.21128241,0.21128241 0 0 0 0.04248,-0.38735 0.20848768,0.20848768 0 0 0 -0.158741,-0.01677 c -0.497464,0.143649 -0.886492,0.143649 -1.384515,0 a 0.21072347,0.21072347 0 0 0 -0.117379,0.404678"
     style="stroke-width:0.558948" />
</svg>
