<svg xmlns="http://www.w3.org/2000/svg" xmlns:xlink="http://www.w3.org/1999/xlink" version="1.1"  width="24" height="24" viewBox="0 0 24 24">
<style>path{fill:#000}@media (prefers-color-scheme:dark){path{fill:#fff}}</style>
<path
         id="path60"
         d="m 31.938,21.552 a 0.375,0.375 0 0 0 -0.374,-0.376 h -4.367 a 0.375,0.375 0 0 0 0,0.75 h 4.367 a 0.374,0.374 0 0 0 0.374,-0.374 m -3.703,2.673 c 0,0.521 0.67,0.929 1.525,0.929 0.841,0 1.526,-0.417 1.526,-0.929 0,-0.513 -0.685,-0.93 -1.526,-0.93 -0.84,0 -1.525,0.417 -1.525,0.93 M 21.35,21.552 a 0.375,0.375 0 0 0 -0.374,-0.376 h -4.367 a 0.375,0.375 0 0 0 0,0.75 h 4.367 a 0.374,0.374 0 0 0 0.374,-0.374 m -4.409,2.673 c 0,0.521 0.67,0.929 1.525,0.929 0.841,0 1.526,-0.417 1.526,-0.929 0,-0.513 -0.685,-0.93 -1.526,-0.93 -0.84,0 -1.525,0.417 -1.525,0.93 m 21.265,12.756 a 0.102,0.102 0 0 1 -0.007,0.08 l -4.565,8.86 a 0.104,0.104 0 0 1 -0.139,0.044 l -1.017,-0.526 4.66,-9.044 1.017,0.526 a 0.102,0.102 0 0 1 0.05,0.06 z m -27.431,-0.06 1.017,-0.526 4.66,9.045 -1.017,0.525 a 0.107,0.107 0 0 1 -0.139,-0.044 l -4.565,-8.86 a 0.105,0.105 0 0 1 -0.007,-0.08 0.105,0.105 0 0 1 0.05,-0.06 z m 8.907,6.342 c -0.125,0.391 -0.393,0.71 -0.757,0.898 l -1.808,0.935 -4.66,-9.044 1.808,-0.935 a 1.529,1.529 0 0 1 2.066,0.66 l 3.253,6.314 c 0.188,0.364 0.223,0.78 0.098,1.172 z m 8.764,-0.213 c -1.378,0.875 -2.732,0.996 -3.99,0.996 -1.253,0 -2.601,-0.12 -3.975,-0.986 A 2.275,2.275 0 0 0 20.249,41.747 L 16.995,35.434 C 16.973,35.39 16.945,35.351 16.918,35.311 L 16.9,35.285 c 2.134,-3.991 5.75,-6.972 7.566,-6.976 1.816,0.004 5.43,2.984 7.565,6.975 l -0.02,0.03 a 0.976,0.976 0 0 0 -0.076,0.12 l -3.254,6.313 c -0.205,0.4 -0.286,0.85 -0.235,1.303 z m 3.367,2.046 -1.808,-0.935 a 1.54,1.54 0 0 1 -0.659,-2.07 l 3.253,-6.314 a 1.525,1.525 0 0 1 1.364,-0.832 c 0.246,0 0.482,0.058 0.702,0.172 l 1.808,0.935 -4.398,8.537 z M 40.49,24.689 a 1.347,1.347 0 0 0 -0.918,-0.237 c 0.374,-1.802 0.633,-3.597 0.771,-5.337 0.38,-4.767 -0.856,-8.844 -3.576,-11.791 -2.9,-3.144 -7.388,-4.947 -12.31,-4.947 -1.25,0 -2.359,0.124 -2.989,0.24 -0.29,-0.151 -0.53,-0.29 -0.753,-0.435 L 20.664,2.148 a 0.19,0.19 0 0 0 -0.258,0.051 l -0.332,0.49 a 0.184,0.184 0 0 0 -0.03,0.141 c 0.01,0.05 0.04,0.095 0.083,0.122 l 0.053,0.034 c 0.85,0.559 1.777,0.979 2.543,1.152 0.87,0.196 1.303,0.618 1.484,0.853 l 0.032,0.041 a 0.188,0.188 0 0 0 0.234,0.052 L 25.001,4.807 A 0.19,0.19 0 0 0 25.067,4.53 L 25.024,4.472 c -0.17,-0.239 -0.648,-0.79 -1.584,-1.127 0.34,-0.018 0.778,-0.033 1.016,-0.033 4.667,0 8.904,1.694 11.624,4.646 2.574,2.793 3.695,6.522 3.332,11.083 a 43.229,43.229 0 0 1 -0.938,6.058 l -0.05,0.269 a 0.248,0.248 0 0 0 0.053,0.206 0.245,0.245 0 0 0 0.192,0.091 h 0.36 a 0.255,0.255 0 0 0 0.152,-0.053 l 0.057,-0.044 c 0.243,-0.187 0.542,-0.235 0.711,-0.115 0.34,0.241 0.348,1.048 0.02,2.054 l -0.347,1.066 c -0.19,0.588 -0.386,1.196 -0.63,1.92 -0.385,1.146 -1.085,1.89 -1.884,2.014 0.02,-0.05 0.041,-0.098 0.062,-0.146 0.047,-0.109 0.094,-0.218 0.14,-0.333 a 0.253,0.253 0 0 0 -0.141,-0.325 l -0.407,-0.16 a 0.253,0.253 0 0 0 -0.321,0.141 c -0.382,0.96 -0.795,1.884 -1.258,2.816 l -0.023,0.03 -0.151,-0.079 a 2.256,2.256 0 0 0 -1.74,-0.146 c -0.26,0.083 -0.5,0.21 -0.715,0.378 a 20.2,20.2 0 0 0 -3.814,-4.82 c -1.611,-1.482 -3.127,-2.3 -4.277,-2.303 -1.143,0.003 -2.66,0.822 -4.27,2.304 a 20.203,20.203 0 0 0 -3.815,4.82 2.263,2.263 0 0 0 -0.717,-0.379 2.255,2.255 0 0 0 -1.739,0.146 l -0.151,0.078 -0.063,-0.078 a 36.789,36.789 0 0 1 -1.238,-2.767 0.25,0.25 0 0 0 -0.322,-0.14 l -0.406,0.16 a 0.252,0.252 0 0 0 -0.14,0.326 c 0.044,0.111 0.09,0.218 0.136,0.325 l 0.064,0.147 a 0.46,0.46 0 0 1 -0.04,-0.006 C 10.972,32.351 10.3,31.621 9.92,30.492 9.68,29.782 9.487,29.183 9.3,28.604 L 8.944,27.506 C 8.615,26.5 8.623,25.694 8.964,25.453 9.137,25.33 9.428,25.381 9.693,25.581 l 0.066,0.042 a 0.244,0.244 0 0 0 0.15,0.038 l 0.354,-0.023 a 0.235,0.235 0 0 0 0.113,-0.04 0.25,0.25 0 0 0 0.132,-0.002 c 0.35,-0.088 0.693,-0.393 0.944,-0.838 0.408,-0.724 0.7,-1.78 1.037,-3.005 0.68,-2.468 1.526,-5.54 3.731,-6.932 2.47,-1.56 4.597,-1.284 7.06,-0.966 2.365,0.304 5.04,0.649 8.516,-0.57 l 0.08,0.051 c 0.255,1.888 1.434,4.368 3.99,5.701 a 0.375,0.375 0 0 0 0.344,-0.664 c -2.379,-1.242 -3.426,-3.551 -3.613,-5.298 a 0.377,0.377 0 0 0 -0.17,-0.276 l -0.384,-0.244 a 0.369,0.369 0 0 0 -0.328,-0.037 c -3.396,1.234 -6.023,0.894 -8.351,0.592 -2.496,-0.32 -4.851,-0.622 -7.543,1.078 -2.45,1.545 -3.339,4.772 -4.054,7.365 -0.324,1.176 -0.604,2.192 -0.967,2.836 -0.155,0.276 -0.318,0.409 -0.417,0.459 A 42.807,42.807 0 0 1 9.5,19.04 C 8.761,9.765 14.322,6.025 17.703,4.62 l 0.045,-0.019 c 0.418,0.184 0.808,0.317 1.16,0.397 0.87,0.196 1.303,0.619 1.484,0.853 l 0.032,0.041 a 0.19,0.19 0 0 0 0.234,0.052 L 21.185,5.668 A 0.19,0.19 0 0 0 21.251,5.391 L 21.209,5.332 C 21.002,5.043 20.383,4.338 19.12,4.052 18.467,3.905 17.658,3.537 16.9,3.042 L 16.85,3.008 a 0.187,0.187 0 0 0 -0.259,0.051 l -0.332,0.49 a 0.19,0.19 0 0 0 0.052,0.263 l 0.053,0.034 c 0.111,0.073 0.225,0.14 0.337,0.205 -5.72,2.669 -8.683,8.152 -8.132,15.063 0.137,1.73 0.397,3.526 0.772,5.337 a 1.358,1.358 0 0 0 -0.918,0.237 c -0.42,0.297 -1.026,1.097 -0.366,3.108 l 0.33,1.022 c 0.198,0.614 0.396,1.228 0.647,1.972 0.663,1.97 1.992,2.671 3.014,2.671 0.05,0 0.098,-0.005 0.146,-0.01 h 0.01 c 0.189,0.426 0.397,0.869 0.634,1.348 l -2.492,1.288 a 1.044,1.044 0 0 0 -0.447,1.402 l 4.566,8.861 a 1.038,1.038 0 0 0 1.4,0.448 l 3.488,-1.805 c 0.411,-0.212 0.75,-0.532 0.986,-0.928 1.453,0.805 2.837,0.916 4.117,0.916 1.222,0 2.667,-0.11 4.129,-0.924 0.235,0.4 0.577,0.722 0.991,0.936 l 3.49,1.805 a 1.036,1.036 0 0 0 1.4,-0.448 l 4.565,-8.86 a 1.043,1.043 0 0 0 -0.446,-1.403 l -2.508,-1.295 c 0.233,-0.472 0.44,-0.912 0.63,-1.342 l 0.012,10e-4 c 0.048,0.005 0.096,0.01 0.146,0.01 1.021,0 2.35,-0.702 3.013,-2.671 0.254,-0.755 0.459,-1.389 0.647,-1.972 l 0.33,-1.02 c 0.66,-2.014 0.054,-2.813 -0.365,-3.11 z M 27.889,36.914 a 3.696,3.696 0 0 1 -3.689,3.696 3.696,3.696 0 0 1 0,-7.389 3.695,3.695 0 0 1 3.688,3.694 M 24.2,32.471 a 4.445,4.445 0 0 0 0,8.888 4.445,4.445 0 0 0 0,-8.888 m 2.02,4.311 a 2.152,2.152 0 0 1 -2.148,2.152 2.152,2.152 0 0 1 0,-4.302 2.15,2.15 0 0 1 2.147,2.15 m -2.147,-2.9 a 2.901,2.901 0 0 0 0,5.802 2.901,2.901 0 0 0 0,-5.802" />
</svg>