<?xml version="1.0" encoding="UTF-8" standalone="no"?>
<svg
   version="1.1"
   width="24"
   height="24"
   viewBox="0 0 24 24"
   id="svg361"
   sodipodi:docname="very-poor.svg"
   inkscape:version="1.2.2 (732a01da63, 2022-12-09)"
   xmlns:inkscape="http://www.inkscape.org/namespaces/inkscape"
   xmlns:sodipodi="http://sodipodi.sourceforge.net/DTD/sodipodi-0.dtd"
   xmlns="http://www.w3.org/2000/svg"
   xmlns:svg="http://www.w3.org/2000/svg">
  <defs
     id="defs365" />
  <sodipodi:namedview
     id="namedview363"
     pagecolor="#ffffff"
     bordercolor="#000000"
     borderopacity="0.25"
     inkscape:showpageshadow="2"
     inkscape:pageopacity="0.0"
     inkscape:pagecheckerboard="0"
     inkscape:deskcolor="#d1d1d1"
     showgrid="false"
     inkscape:zoom="35.583333"
     inkscape:cx="10.918033"
     inkscape:cy="14.163934"
     inkscape:window-width="2560"
     inkscape:window-height="1369"
     inkscape:window-x="-8"
     inkscape:window-y="-8"
     inkscape:window-maximized="1"
     inkscape:current-layer="svg361" />
  <style
     id="style358">path{fill:#000}@media (prefers-color-scheme:dark){path{fill:#fff}}</style>
  <path
     id="path60"
     d="m 16.00388,10.413702 a 0.20067547,0.20067547 0 0 0 -0.20014,-0.201211 h -2.336933 a 0.200676,0.200676 0 0 0 0,0.401352 h 2.336933 a 0.20014034,0.20014034 0 0 0 0.20014,-0.200141 m -1.981603,1.430415 c 0,0.278805 0.35854,0.49714 0.81608,0.49714 0.450048,0 0.816616,-0.223151 0.816616,-0.49714 0,-0.274524 -0.366568,-0.497675 -0.816616,-0.497675 -0.449513,0 -0.81608,0.223151 -0.81608,0.497675 m -3.684402,-1.430415 a 0.20067547,0.20067547 0 0 0 -0.20014,-0.201211 H 7.8008018 a 0.200676,0.200676 0 0 0 0,0.401352 h 2.3369332 a 0.20014034,0.20014034 0 0 0 0.20014,-0.200141 m -2.3594086,1.430415 c 0,0.278805 0.3585402,0.49714 0.8160803,0.49714 0.4500482,0 0.8166154,-0.223151 0.8166154,-0.49714 0,-0.274524 -0.3665672,-0.497675 -0.8166154,-0.497675 -0.4495131,0 -0.8160803,0.223151 -0.8160803,0.497675 m 11.3796376,6.826177 a 0.05458373,0.05458373 0 0 1 -0.0038,0.04281 l -2.44289,4.741293 a 0.055654,0.055654 0 0 1 -0.07438,0.02355 l -0.544199,-0.281485 2.493727,-4.839757 0.544232,0.281481 a 0.05458373,0.05458373 0 0 1 0.02675,0.0321 z m -14.6792774,-0.03211 0.5442318,-0.28148 2.4937273,4.840292 -0.5442319,0.280946 a 0.0572594,0.0572594 0 0 1 -0.074384,-0.02355 L 4.6552807,18.713105 a 0.05618913,0.05618913 0 0 1 -0.00375,-0.04281 0.05618913,0.05618913 0 0 1 0.026757,-0.0321 z m 4.7664438,3.393824 c -0.066892,0.209237 -0.2103079,0.379945 -0.4050969,0.480551 l -0.9675233,0.50035 -2.4937273,-4.839756 0.9675234,-0.500351 a 0.81822076,0.81822076 0 0 1 1.1055881,0.353188 l 1.7407928,3.37884 c 0.1006053,0.194789 0.119335,0.417405 0.052443,0.627178 z M 14.13519,21.918024 c -0.737416,0.468243 -1.461988,0.532994 -2.135187,0.532994 -0.670524,0 -1.391885,-0.06422 -2.1271601,-0.527642 A 1.2174312,1.2174312 0 0 0 9.7486916,21.220746 L 8.0073637,17.842441 c -0.011773,-0.02355 -0.026757,-0.04442 -0.041206,-0.06582 l -0.00963,-0.01392 c 1.1419775,-2.135716 3.0770243,-3.730953 4.0488293,-3.733094 0.971804,0.0022 2.90578,1.596842 4.048293,3.732564 l -0.0107,0.01606 a 0.52229136,0.52229136 0 0 0 -0.04067,0.06422 l -1.741327,3.378305 c -0.109703,0.214053 -0.153049,0.454864 -0.125757,0.69728 z m 1.801798,1.094885 -0.967523,-0.50035 a 0.82410725,0.82410725 0 0 1 -0.352654,-1.107724 l 1.740793,-3.37884 a 0.81608023,0.81608023 0 0 1 0.729924,-0.445232 c 0.131642,0 0.257934,0.03104 0.375664,0.09204 l 0.967524,0.500355 -2.353522,4.568444 z M 20.580351,12.09242 a 0.72082632,0.72082632 0 0 0 -0.491253,-0.126827 c 0.20014,-0.964313 0.33874,-1.924879 0.412589,-2.8560137 0.203351,-2.5509862 -0.458076,-4.73273 -1.913642,-6.3097716 -1.551891,-1.6824631 -3.953574,-2.64731073 -6.587507,-2.64731073 -0.668918,0 -1.262382,0.0663567 -1.599517,0.1284322 C 10.245832,0.20012396 10.117399,0.12574025 9.9980644,0.04814573 L 9.9707725,0.02995115 A 0.10167557,0.10167557 0 0 0 9.8327078,0.05724302 L 9.6550431,0.31945886 a 0.09846476,0.09846476 0 0 0 -0.016054,0.075454 c 0.00535,0.0267567 0.021405,0.0508378 0.044416,0.0652865 l 0.028362,0.0181945 c 0.4548649,0.29914022 0.9509349,0.52389674 1.3608479,0.61647504 0.465567,0.1048864 0.69728,0.3307132 0.79414,0.4564698 l 0.01712,0.02194 a 0.1006053,0.1006053 0 0 0 0.125221,0.027827 L 12.291647,1.452874 a 0.10167557,0.10167557 0 0 0 0.03532,-0.1482323 l -0.02301,-0.031038 C 12.212987,1.1457065 11.95719,0.85084728 11.456304,0.67050695 c 0.181946,-0.009632 0.416335,-0.0176595 0.543697,-0.0176595 2.497473,0 4.764838,0.90651805 6.220405,2.48623535 1.377436,1.4946309 1.977322,3.4901478 1.783068,5.9308969 A 23.133333,23.133333 0 0 1 19.50152,12.311825 l -0.02675,0.143951 a 0.13271338,0.13271338 0 0 0 0.02836,0.110237 0.13110797,0.13110797 0 0 0 0.102746,0.0487 h 0.192648 a 0.13645932,0.13645932 0 0 0 0.08134,-0.02836 l 0.0305,-0.02355 c 0.130038,-0.10007 0.290044,-0.125757 0.380481,-0.06154 0.181946,0.128967 0.186227,0.560821 0.0107,1.099166 l -0.185691,0.570453 c -0.101676,0.314659 -0.206562,0.640021 -0.337135,1.027458 -0.206027,0.613265 -0.580622,1.011405 -1.008194,1.077761 0.0107,-0.02675 0.02194,-0.05244 0.03318,-0.07813 0.02515,-0.05833 0.0503,-0.116659 0.07492,-0.1782 a 0.13538905,0.13538905 0 0 0 -0.07545,-0.173924 l -0.217799,-0.08562 a 0.13538905,0.13538905 0 0 0 -0.171778,0.07545 c -0.204422,0.513729 -0.425432,1.008194 -0.673201,1.506939 l -0.01231,0.01606 -0.08081,-0.04227 a 1.2072636,1.2072636 0 0 0 -0.931133,-0.07813 c -0.139135,0.04441 -0.267568,0.112378 -0.382622,0.20228 a 10.809719,10.809719 0 0 0 -2.041,-2.579352 c -0.862102,-0.79307 -1.673366,-1.23081 -2.288771,-1.232415 -0.611659,0.0016 -1.423458,0.439881 -2.2850248,1.23295 a 10.811324,10.811324 0 0 0 -2.0415344,2.579349 1.2110096,1.2110096 0 0 0 -0.3836915,-0.202816 1.2067285,1.2067285 0 0 0 -0.9305991,0.07813 l -0.080805,0.04174 -0.033714,-0.04174 A 19.687066,19.687066 0 0 1 5.5858856,15.835684 0.13378365,0.13378365 0 0 0 5.4135722,15.760764 l -0.2172646,0.08562 a 0.13485392,0.13485392 0 0 0 -0.074919,0.174453 c 0.023546,0.0594 0.048162,0.11666 0.072778,0.17392 l 0.034248,0.07866 a 0.24616191,0.24616191 0 0 1 -0.021405,-0.0032 C 4.7842534,16.192617 4.4246429,15.801972 4.2212918,15.197805 4.0928595,14.817859 3.9895785,14.497313 3.8895084,14.18747 L 3.6990005,13.599892 c -0.1760593,-0.538345 -0.1717783,-0.969663 0.010703,-1.09863 0.092578,-0.06582 0.2483025,-0.03853 0.3901132,0.0685 l 0.035319,0.02248 a 0.13057284,0.13057284 0 0 0 0.08027,0.02033 l 0.1894376,-0.01231 a 0.12575663,0.12575663 0 0 0 0.06047,-0.02141 0.13378365,0.13378365 0 0 0 0.070638,-10e-4 C 4.7232484,12.530762 4.9067996,12.367544 5.0411183,12.129409 5.2594532,11.741972 5.4157126,11.17687 5.5960529,10.52133 5.9599441,9.2005948 6.4126679,7.5566609 7.5926397,6.8117537 8.9144221,5.9769437 10.052653,6.1246409 11.37069,6.2948137 12.636283,6.4574946 14.067768,6.642116 15.927896,5.9897869 l 0.04281,0.027292 c 0.13646,1.010334 0.767383,2.3374676 2.135188,3.0508026 a 0.20067547,0.20067547 0 0 0 0.18408,-0.3553719 C 17.01689,8.0478725 16.456604,6.8122468 16.356534,5.8773667 A 0.20174574,0.20174574 0 0 0 16.265561,5.7296695 L 16.060069,5.5990967 a 0.19746466,0.19746466 0 0 0 -0.175524,-0.0198 C 14.067228,6.2396528 12.661429,6.0577071 11.415636,5.8960964 10.07994,5.7248534 8.819698,5.5632427 7.3791157,6.4729715 6.0680359,7.2997542 5.5923013,9.0266337 5.2096801,10.414237 5.0362965,11.043555 4.8864588,11.587252 4.692205,11.931879 4.609259,12.079577 4.5220322,12.150749 4.4690538,12.177506 A 22.907506,22.907506 0 0 1 3.99653,9.0694442 C 3.6010655,4.1060712 6.576949,2.1046679 8.386239,1.3528038 L 8.41032,1.3426358 c 0.223686,0.098465 0.4323885,0.1696379 0.6207559,0.2124487 0.4655671,0.1048864 0.6972804,0.3312483 0.7941397,0.4564698 l 0.017124,0.02194 a 0.10167557,0.10167557 0 0 0 0.1252219,0.027827 L 10.249578,1.9136248 a 0.10167557,0.10167557 0 0 0 0.03532,-0.1482323 l -0.02248,-0.031573 C 10.151648,1.5791657 9.8203997,1.2018958 9.1445247,1.0488473 8.7950818,0.97018251 8.3621579,0.77325302 7.9565259,0.50836137 L 7.9297692,0.49016677 A 0.10007016,0.10007016 0 0 0 7.7911694,0.51745867 L 7.6135047,0.77967462 A 0.10167557,0.10167557 0 0 0 7.6413317,0.920415 l 0.028362,0.0181948 C 7.7290937,0.977675 7.790099,1.0135287 7.850034,1.0483125 4.7890642,2.4765867 3.2034604,5.4107296 3.4983195,9.1090444 3.5716335,10.034827 3.710768,10.995929 3.9114435,11.965057 A 0.72671274,0.72671274 0 0 0 3.4201899,12.091885 C 3.1954334,12.25082 2.8711418,12.678927 3.2243306,13.755083 l 0.1765945,0.546907 c 0.1059566,0.328573 0.2119132,0.657146 0.346232,1.055286 0.3547943,1.054215 1.0659881,1.429344 1.6128957,1.429344 0.026757,0 0.052443,-0.0026 0.07813,-0.0054 h 0.00535 c 0.1011404,0.227968 0.2124484,0.465032 0.3392753,0.721362 l -1.3335562,0.689282 a 0.55868051,0.55868051 0 0 0 -0.2392051,0.750259 l 2.4434245,4.741827 a 0.5554697,0.5554697 0 0 0 0.7491884,0.239741 l 1.8665494,-0.965918 c 0.2199404,-0.113449 0.401351,-0.284692 0.5276428,-0.496605 0.7775501,0.430783 1.5181771,0.490183 2.2031491,0.490183 0.653934,0 1.427204,-0.05887 2.20957,-0.494464 0.125757,0.214053 0.308773,0.386367 0.530319,0.500886 l 1.86762,0.965918 a 0.55439943,0.55439943 0 0 0 0.749188,-0.239741 l 2.44289,-4.741292 a 0.55814537,0.55814537 0 0 0 -0.23867,-0.750794 L 18.2188,17.498865 c 0.124686,-0.252584 0.23546,-0.488043 0.337135,-0.718151 l 0.0064,5.35e-4 c 0.02569,0.0027 0.05137,0.0054 0.07813,0.0054 0.546373,0 1.257567,-0.375664 1.612361,-1.429344 0.135924,-0.404027 0.245627,-0.743302 0.346232,-1.055286 l 0.176594,-0.545837 c 0.353189,-1.077761 0.0289,-1.505333 -0.195324,-1.664268 z m -6.743231,6.54202 a 1.9778574,1.9778574 0 0 1 -1.974111,1.977857 1.9778574,1.9778574 0 0 1 0,-3.954109 1.9773223,1.9773223 0 0 1 1.973576,1.976787 m -1.973576,-2.378138 a 2.3786733,2.3786733 0 0 0 0,4.756276 2.3786733,2.3786733 0 0 0 0,-4.756276 m 1.080971,2.306965 a 1.1516096,1.1516096 0 0 1 -1.149469,1.15161 1.1516096,1.1516096 0 0 1 0,-2.30215 1.1505394,1.1505394 0 0 1 1.148934,1.15054 m -1.148934,-1.55189 a 1.5524255,1.5524255 0 0 0 0,3.104851 1.5524255,1.5524255 0 0 0 0,-3.104851"
     style="stroke-width:0.535135" />
</svg>
